<?xml version="1.0" encoding="UTF-8"?>
<svg width="9px" height="16px" viewBox="0 0 9 16" version="1.1" xmlns="http://www.w3.org/2000/svg" xmlns:xlink="http://www.w3.org/1999/xlink">
    <!-- Generator: Sketch 52.3 (67297) - http://www.bohemiancoding.com/sketch -->
    <title>caretRightGray</title>
    <desc>Created with Sketch.</desc>
    <g id="Page-1" stroke="none" stroke-width="1" fill="none" fill-rule="evenodd">
        <g id="icons" transform="translate(-199.000000, -226.000000)" fill="#8A959F">
            <path d="M207.56498,233.181052 C207.759756,233.375828 207.857143,233.60648 207.857143,233.873016 C207.857143,234.139552 207.759756,234.370204 207.56498,234.56498 L200.676091,241.453869 C200.481315,241.648645 200.250663,241.746032 199.984127,241.746032 C199.717591,241.746032 199.486939,241.648645 199.292163,241.453869 C199.097387,241.259093 199,241.028441 199,240.761905 L199,226.984127 C199,226.717591 199.097387,226.486939 199.292163,226.292163 C199.486939,226.097387 199.717591,226 199.984127,226 C200.250663,226 200.481315,226.097387 200.676091,226.292163 L207.56498,233.181052 Z" id="caretRightGray"></path>
        </g>
    </g>
</svg>