<?xml version="1.0" standalone="no"?>
<!DOCTYPE svg PUBLIC "-//W3C//DTD SVG 1.1//EN" "http://www.w3.org/Graphics/SVG/1.1/DTD/svg11.dtd" >
<svg xmlns="http://www.w3.org/2000/svg">
<metadata>Generated by IcoMoon</metadata>
<defs>
<font id="SDKV3Icons" horiz-adv-x="1024">
<font-face units-per-em="1024" ascent="960" descent="-64" />
<missing-glyph horiz-adv-x="1024" />
<glyph unicode="&#x20;" horiz-adv-x="512" d="" />
<glyph unicode="&#xe900;" glyph-name="emoji-happy" d="M305.231 535.231c0 32.769 26.538 59.077 59.077 59.077s59.077-26.308 59.077-59.077c0-32.539-26.538-59.077-59.077-59.077s-59.077 26.538-59.077 59.077zM600.617 535.231c0 32.769 26.537 59.077 59.075 59.077s59.080-26.308 59.080-59.077c0-32.539-26.542-59.077-59.080-59.077s-59.075 26.538-59.075 59.077zM334.112 316.877c-5.914 5.668-9.363 13.553-9.61 21.683-0.493 13.061 7.145 25.134 19.219 30.060 12.073 5.176 25.872 2.463 34.989-7.142 34.249-34.007 81.312-55.194 133.551-55.194 52.234 0 99.297 21.187 133.545 55.194 12.319 12.319 32.282 12.319 44.6 0 12.319-12.324 12.319-32.282 0-44.6-45.583-45.338-108.662-73.672-178.145-73.672-69.487 0-132.565 28.334-178.149 73.672zM128 448c0 211.615 172.385 384 384 384s384-172.385 384-384c0-211.615-172.385-384-384-384s-384 172.385-384 384zM836.925 448c0 179.769-145.157 324.923-324.925 324.923-179.769 0-324.923-145.154-324.923-324.923s145.154-324.925 324.923-324.925c179.768 0 324.925 145.157 324.925 324.925z" />
<glyph unicode="&#xe901;" glyph-name="microphone" d="M512 864c-87.75 0-160-72.25-160-160v-256c0-87.752 72.25-160 160-160 87.752 0 160 72.248 160 160v256c0 87.75-72.248 160-160 160zM512 800c53.002 0 96-43 96-96v-256c0-53.002-42.998-96-96-96-53 0-96 42.998-96 96v256c0 53 43 96 96 96zM256 480c-17.673 0-32-14.327-32-32 0-147.251 112.75-268.498 256-284.749v-67.251h-96c-17.673 0-32-14.326-32-32s14.327-32 32-32h256c17.674 0 32 14.326 32 32s-14.326 32-32 32h-96v67.251c143.252 16.251 256 137.498 256 284.749 0 17.673-14.326 32-32 32s-32-14.327-32-32c0-123.249-100.751-224-224-224s-224 100.751-224 224c0 17.673-14.327 32-32 32z" />
<glyph unicode="&#xe902;" glyph-name="close" d="M557.251 447.995l265.375 265.378c12.498 12.497 12.498 32.758 0 45.255-12.493 12.497-32.758 12.497-45.251 0l-265.381-265.379-265.367 265.355c-12.497 12.497-32.758 12.496-45.255-0.001s-12.496-32.758 0.001-45.255l265.366-265.353-265.367-265.37c-12.497-12.498-12.497-32.758 0-45.256 12.497-12.493 32.758-12.493 45.255 0l265.368 265.37 265.38-265.37c12.498-12.493 32.758-12.493 45.256 0.005 12.493 12.493 12.493 32.758-0.005 45.251l-265.375 265.37z" />
<glyph unicode="&#xe903;" glyph-name="read-status" horiz-adv-x="1138" d="M568.978-29.844c-263.918 0-477.867 213.948-477.867 477.867s213.949 477.866 477.867 477.866c263.919 0 477.867-213.948 477.867-477.866s-213.948-477.867-477.867-477.867zM790.415 525.251c23.328 23.328 23.328 61.149 0 84.477s-61.149 23.327-84.475 0l-196.696-196.696-77.229 77.229c-23.327 23.327-61.148 23.327-84.475 0-23.328-23.328-23.328-61.149 0-84.477l119.467-119.467c23.328-23.327 61.149-23.327 84.475 0l238.933 238.933z" />
<glyph unicode="&#xe904;" glyph-name="failed-status" d="M512.080 17.94c-237.526 0-430.080 192.553-430.080 430.080s192.554 430.079 430.080 430.079c237.527 0 430.080-192.553 430.080-430.079s-192.553-430.080-430.080-430.080zM442.574 593.554c-20.994 20.994-55.033 20.994-76.028 0s-20.995-55.034 0-76.029l69.506-69.505-69.506-69.506c-20.995-20.995-20.995-55.034 0-76.029s55.034-20.994 76.028 0l69.506 69.506 69.506-69.506c20.994-20.994 55.034-20.994 76.028 0s20.995 55.034 0 76.029l-69.506 69.506 69.506 69.505c20.995 20.995 20.995 55.034 0 76.029s-55.034 20.994-76.028 0l-69.506-69.506-69.506 69.506z" />
<glyph unicode="&#xe905;" glyph-name="check" d="M881.882 747.668c11.942 12.855 31.942 13.503 44.672 1.446 11.987-11.347 13.261-29.903 3.411-42.765l-1.978-2.342-535.206-544.584c-11.435-12.307-30.21-13.395-42.926-2.982l-2.31 2.086-254.936 253.655c-12.433 12.37-12.58 32.575-0.328 45.128 11.531 11.814 29.935 12.641 42.426 2.384l2.269-2.053 231.861-230.698 513.044 520.724z" />
<glyph unicode="&#xe906;" glyph-name="download" d="M198.4 134.4c0 24.74 20.058 44.8 44.8 44.8h537.6c24.745 0 44.8-20.060 44.8-44.8s-20.055-44.8-44.8-44.8h-537.6c-24.742 0-44.8 20.060-44.8 44.8zM345.922 479.678c17.496 17.496 45.861 17.496 63.357 0l57.922-57.924v339.845c0 24.742 20.058 44.8 44.8 44.8 24.74 0 44.8-20.058 44.8-44.8v-339.845l57.923 57.924c17.495 17.496 45.86 17.496 63.355 0s17.495-45.861 0-63.356l-134.4-134.4c-8.402-8.402-19.794-13.123-31.677-13.123-11.881 0-23.277 4.721-31.678 13.123l-134.4 134.4c-17.496 17.495-17.496 45.86 0 63.356z" />
<glyph unicode="&#xe907;" glyph-name="video-play" d="M512-64c-282.77 0-512 229.23-512 512s229.23 512 512 512c282.77 0 512-229.23 512-512s-229.23-512-512-512zM483.501 629.251c-19.639 13.093-44.889 14.313-65.7 3.176s-33.801-32.824-33.801-56.427v-256c0-23.603 12.991-45.29 33.801-56.428s46.061-9.917 65.7 3.176l192 128c17.805 11.87 28.499 31.853 28.499 53.252s-10.694 41.381-28.499 53.251l-192 128z" />
<glyph unicode="&#xe90a;" glyph-name="document-text" d="M243.2 716.8c0 49.485 40.115 89.6 89.6 89.6h205.445c23.762 0 46.551-9.44 63.355-26.243l152.955-152.957c16.804-16.803 26.245-39.593 26.245-63.357v-384.643c0-49.485-40.115-89.6-89.6-89.6h-358.4c-49.485 0-89.6 40.115-89.6 89.6v537.6zM332.8 448c0-24.74 20.058-44.8 44.8-44.8h268.8c24.74 0 44.8 20.060 44.8 44.8 0 24.742-20.060 44.8-44.8 44.8h-268.8c-24.742 0-44.8-20.058-44.8-44.8zM377.6 313.6c-24.742 0-44.8-20.060-44.8-44.8s20.058-44.8 44.8-44.8h268.8c24.74 0 44.8 20.060 44.8 44.8s-20.060 44.8-44.8 44.8h-268.8z" />
<glyph unicode="&#xe90b;" glyph-name="music-note" d="M870.4 761.599c0 13.422-6.016 26.137-16.399 34.646-10.378 8.509-24.023 11.916-37.187 9.284l-448-89.6c-20.941-4.188-36.014-22.575-36.014-43.93v-408.299c-14.012 3.302-29.091 5.1-44.8 5.1-74.227 0-134.4-40.115-134.4-89.6s60.173-89.6 134.4-89.6c74.227 0 134.399 40.115 134.4 89.6v366.473l358.4 71.68v-264.052c-14.013 3.302-29.092 5.1-44.8 5.1-74.225 0-134.4-40.115-134.4-89.6s60.175-89.6 134.4-89.6c74.225 0 134.4 40.115 134.4 89.6v492.799z" />
<glyph unicode="&#xe90c;" glyph-name="wahoo" d="M273.089 866.883c41.156 3.285 80.227 19.468 111.652 46.248 73.332 62.493 181.187 62.493 254.518 0 31.424-26.78 70.496-42.963 111.655-46.248 96.037-7.664 172.303-83.929 179.968-179.972 3.284-41.156 19.471-80.227 46.248-111.652 62.493-73.332 62.493-181.187 0-254.518-26.778-31.424-42.964-70.496-46.248-111.655-7.665-96.037-83.931-172.303-179.968-179.968-41.159-3.284-80.23-19.471-111.655-46.248-73.332-62.493-181.187-62.493-254.518 0-31.424 26.778-70.496 42.964-111.652 46.248-96.042 7.665-172.308 83.931-179.972 179.968-3.285 41.159-19.468 80.23-46.248 111.655-62.493 73.332-62.493 181.187 0 254.518 26.78 31.424 42.963 70.496 46.248 111.652 7.664 96.042 83.929 172.308 179.972 179.972zM749.253 530.745c24.993 24.994 24.993 65.516 0 90.51s-65.515 24.994-90.508 0l-210.745-210.745-82.745 82.745c-24.994 24.994-65.516 24.994-90.51 0s-24.994-65.516 0-90.51l128-128c24.994-24.994 65.516-24.994 90.51 0l255.999 256z" />
<glyph unicode="&#xe90d;" glyph-name="failed-info" d="M512 910.222c-254.722 0-462.222-207.5-462.222-462.222 0-254.72 207.5-462.222 462.222-462.222 254.72 0 462.222 207.502 462.222 462.222 0 254.722-207.502 462.222-462.222 462.222zM512 839.111c216.388 0 391.111-174.722 391.111-391.111s-174.723-391.111-391.111-391.111c-216.389 0-391.111 174.723-391.111 391.111s174.722 391.111 391.111 391.111zM512 696.889c-19.637 0-35.556-15.919-35.556-35.556v-284.444c0-19.638 15.919-35.556 35.556-35.556s35.556 15.918 35.556 35.556v284.444c0 19.637-15.919 35.556-35.556 35.556zM512 270.222c-19.637 0-35.556-15.918-35.556-35.556s15.919-35.556 35.556-35.556c19.637 0 35.556 15.918 35.556 35.556s-15.919 35.556-35.556 35.556z" />
<glyph unicode="&#xe90e;" glyph-name="changelogs" d="M512 945.778c274.916 0 497.778-222.863 497.778-497.778 0-272.168-218.431-493.318-489.546-497.71l-9.278-0.068c-15.247 0.034-30.413 0.751-45.466 2.145l-15.014 1.621c-20.211 2.497-34.574 20.901-32.081 41.114 2.493 20.207 20.899 34.571 41.11 32.080 12.767-1.576 25.646-2.577 38.61-2.992l13.887-0.222c234.189 0 424.033 189.844 424.033 424.033 0 231.613-185.697 419.855-416.329 423.964l-8.074 0.068c-28.493-0.024-56.602-2.854-84.056-8.397-19.961-4.031-39.41 8.883-43.441 28.844s8.883 39.411 28.844 43.441c27.746 5.603 56.045 8.842 84.679 9.654l14.343 0.203zM210.784 97.195c12.005 16.447 35.072 20.053 51.521 8.044 22.889-16.703 47.392-31.084 73.152-42.894 18.511-8.494 26.635-30.379 18.146-48.89-8.488-18.506-30.376-26.635-48.886-18.142-30.254 13.87-59.022 30.754-85.887 50.364-16.449 12.004-20.052 35.072-8.046 51.519zM79.155 285.019c18.419 8.687 40.392 0.796 49.076-17.624 12.084-25.628 26.721-49.977 43.666-72.693 12.177-16.321 8.817-39.424-7.505-51.598-16.322-12.18-39.425-8.818-51.603 7.504-19.886 26.652-37.069 55.239-51.261 85.339-8.685 18.415-0.793 40.391 17.626 49.072zM486.394 715.325c19.232 0 35.026-14.725 36.721-33.516l0.151-3.356 0.003-239.118 203.839-114.090c16.725-9.358 23.324-29.815 15.753-47.002l-1.587-3.18c-9.358-16.725-29.81-23.33-47.002-15.758l-3.18 1.587-222.705 124.632c-10.679 5.977-17.632 16.816-18.717 28.864l-0.148 3.313v260.75c0 20.365 16.508 36.873 36.873 36.873zM50.857 513.426l3.359-0.055c20.326-1.243 35.796-18.728 34.553-39.054-0.525-8.579-0.792-17.199-0.802-25.812-0.001-20.28 1.351-39.938 4.049-59.379 2.799-20.167-11.283-38.793-31.454-41.591s-38.792 11.287-41.591 31.454c-3.165 22.808-4.749 45.852-4.749 69.556 0.011 10.128 0.325 20.222 0.939 30.273 1.174 19.197 16.835 34.062 35.695 34.608zM92.425 715.949c10.976 17.153 33.778 22.162 50.931 11.186s22.161-33.778 11.186-50.932c-15.264-23.855-28.107-49.184-38.31-75.632-7.33-18.999-28.673-28.459-47.672-21.13s-28.46 28.674-21.13 47.673c11.988 31.074 27.072 60.824 44.994 88.834zM272.744 884.606c17.85 9.801 40.266 3.276 50.067-14.574s3.276-40.267-14.574-50.068c-24.839-13.638-48.259-29.745-69.904-48.053-15.548-13.151-38.814-11.207-51.965 4.341s-11.208 38.814 4.341 51.965c25.393 21.478 52.876 40.38 82.035 56.39z" />
<glyph unicode="&#xe90f;" glyph-name="trophy" horiz-adv-x="910" d="M301.055 922.056c-54.753 0-99.48-41.632-105.463-94.815h-60.463c-45.392 0-82.963-37.571-82.963-82.963v-142.222c0-84.668 69.406-154.074 154.074-154.074h1.157c31.691-98.911 118.452-173.185 224.028-187.038v-73.705h-82.963c-84.954 0-154.074-69.12-154.074-154.072v-23.706c0-19.649 15.906-35.556 35.556-35.556h474.073c19.649 0 35.556 15.906 35.556 35.556v23.706c0 84.952-69.12 154.072-154.072 154.072h-82.963v73.705c105.577 13.852 192.338 88.127 224.025 187.038h1.161c84.668 0 154.072 69.406 154.072 154.074v142.222c0 45.392-37.569 82.963-82.961 82.963h-60.462c-5.985 53.183-50.711 94.815-105.466 94.815h-331.851zM135.13 756.13h59.259v-225.185c0-3.627 0.415-7.148 0.556-10.741-40.719 5.465-71.667 39.501-71.667 81.852v142.222c0 6.993 4.858 11.852 11.852 11.852zM739.573 756.13h59.261c6.992 0 11.85-4.858 11.85-11.852v-142.222c0-42.351-30.948-76.386-71.663-81.852 0.137 3.593 0.552 7.114 0.552 10.741v225.185z" />
<glyph unicode="&#xe910;" glyph-name="file" horiz-adv-x="910" d="M302.029 954.222h306.187c38.65 0 69.609 0.001 94.64-2.044 25.702-2.1 47.969-6.516 68.466-16.96 32.808-16.717 59.483-43.392 76.197-76.2 10.445-20.498 14.859-42.761 16.964-68.465 2.042-25.029 2.042-55.991 2.042-94.638v-495.82c0-38.645 0-69.609-2.042-94.635-2.105-25.708-6.519-47.969-16.964-68.466-16.714-32.808-43.389-59.483-76.197-76.203-20.497-10.445-42.763-14.859-68.466-16.959-25.031-2.042-55.996-2.042-94.64-2.042h-306.185c-38.647 0-69.611 0-94.64 2.042-25.704 2.099-47.966 6.514-68.465 16.959-32.808 16.72-59.483 43.395-76.2 76.203-10.444 20.497-14.86 42.758-16.96 68.466-2.045 25.025-2.045 55.99-2.044 94.635v495.82c0 38.647-0.001 69.609 2.044 94.638 2.1 25.704 6.516 47.966 16.96 68.465 16.717 32.808 43.391 59.483 76.2 76.2 20.498 10.444 42.761 14.86 68.465 16.96 25.029 2.045 55.991 2.045 94.638 2.044zM212.626 888.107c-21.728-1.775-34.59-5.11-44.515-10.167-20.713-10.553-37.553-27.394-48.106-48.106-5.057-9.925-8.392-22.787-10.167-44.515-1.806-22.103-1.831-50.437-1.831-90.794v-493.036c0-40.357 0.025-68.693 1.831-90.795 1.775-21.732 5.11-34.588 10.167-44.516 10.553-20.713 27.394-37.552 48.106-48.105 9.925-5.057 22.787-8.391 44.515-10.166 22.103-1.809 50.438-1.832 90.794-1.832h303.408c40.357 0 68.688 0.023 90.795 1.832 21.726 1.775 34.588 5.109 44.516 10.166 20.713 10.553 37.552 27.392 48.105 48.105 5.057 9.927 8.391 22.784 10.166 44.516 1.803 22.101 1.832 50.438 1.832 90.795v493.036c0 40.356-0.028 68.69-1.832 90.794-1.775 21.728-5.109 34.59-10.166 44.515-10.553 20.713-27.392 37.553-48.105 48.106-9.927 5.057-22.79 8.392-44.516 10.167-22.107 1.806-50.438 1.831-90.795 1.831h-303.408c-40.356 0-68.69-0.025-90.794-1.831zM233.352 685.043c0 17.752 14.391 32.142 32.142 32.142h379.262c17.749 0 32.142-14.391 32.142-32.142s-14.393-32.142-32.142-32.142h-379.262c-17.752 0-32.142 14.391-32.142 32.142zM233.352 495.413c0 17.752 14.391 32.142 32.142 32.142h284.444c17.752 0 32.143-14.391 32.143-32.142s-14.391-32.142-32.143-32.142h-284.444c-17.752 0-32.142 14.391-32.142 32.142zM233.352 305.783c0 17.749 14.391 32.142 32.142 32.142h379.262c17.749 0 32.142-14.393 32.142-32.142s-14.393-32.142-32.142-32.142h-379.262c-17.752 0-32.142 14.393-32.142 32.142z" />
<glyph unicode="&#xe911;" glyph-name="article" d="M0 768v-640c0-70.693 57.308-128 128-128h768c-70.693 0-128 57.307-128 128v640c0 70.693-57.307 128-128 128h-512c-70.692 0-128-57.307-128-128zM192 704h384v-256h-384v256zM576 320v-128h-384v128h384zM832 640h64c70.693 0 128-57.307 128-128v-352c0-53.021-42.979-96-96-96s-96 42.979-96 96v480z" />
<glyph unicode="&#xe912;" glyph-name="send" horiz-adv-x="1097" d="M122.239 590.131c-26.932-9.859-29.339-47.015-3.945-60.344l335.664-176.415 176.266-335.591c13.332-25.381 50.446-22.923 60.308 4.001l303.956 829.718c9.677 26.424-15.982 52.089-42.408 42.415l-829.84-303.784zM215.084 553.528l619.096 226.82-361.961-361.961-257.135 135.142zM518.971 371.635l361.962 361.961-226.638-619.281-135.325 257.32z" />
<glyph unicode="&#xe913;" glyph-name="keypad-virtual" horiz-adv-x="1621" d="M160 896c-87.917 0-160-72.084-160-160v-640c0-87.919 72.083-160 160-160h1280c87.919 0 160 72.081 160 160v640c0 87.916-72.081 160-160 160h-1280zM160 789.333h1280c30.003 0 53.333-23.334 53.333-53.333v-640c0-30.003-23.33-53.333-53.333-53.333h-1280c-30 0-53.333 23.33-53.333 53.333v640c0 30 23.334 53.333 53.333 53.333zM266.667 682.667c-29.455 0-53.333-23.878-53.333-53.333s23.878-53.333 53.333-53.333c29.455 0 53.333 23.878 53.333 53.333s-23.878 53.333-53.333 53.333zM480 682.667c-29.455 0-53.333-23.878-53.333-53.333s23.878-53.333 53.333-53.333c29.455 0 53.333 23.878 53.333 53.333s-23.878 53.333-53.333 53.333zM693.333 682.667c-29.455 0-53.333-23.878-53.333-53.333s23.878-53.333 53.333-53.333c29.455 0 53.333 23.878 53.333 53.333s-23.878 53.333-53.333 53.333zM906.667 682.667c-29.457 0-53.333-23.878-53.333-53.333s23.876-53.333 53.333-53.333c29.457 0 53.333 23.878 53.333 53.333s-23.876 53.333-53.333 53.333zM1120 682.667c-29.457 0-53.333-23.878-53.333-53.333s23.876-53.333 53.333-53.333c29.457 0 53.333 23.878 53.333 53.333s-23.876 53.333-53.333 53.333zM1333.333 682.667c-29.457 0-53.333-23.878-53.333-53.333s23.876-53.333 53.333-53.333c29.457 0 53.333 23.878 53.333 53.333s-23.876 53.333-53.333 53.333zM266.667 469.333c-29.455 0-53.333-23.878-53.333-53.333s23.878-53.333 53.333-53.333c29.455 0 53.333 23.878 53.333 53.333s-23.878 53.333-53.333 53.333zM480 469.333c-29.455 0-53.333-23.878-53.333-53.333s23.878-53.333 53.333-53.333c29.455 0 53.333 23.878 53.333 53.333s-23.878 53.333-53.333 53.333zM693.333 469.333c-29.455 0-53.333-23.878-53.333-53.333s23.878-53.333 53.333-53.333c29.455 0 53.333 23.878 53.333 53.333s-23.878 53.333-53.333 53.333zM906.667 469.333c-29.457 0-53.333-23.878-53.333-53.333s23.876-53.333 53.333-53.333c29.457 0 53.333 23.878 53.333 53.333s-23.876 53.333-53.333 53.333zM1120 469.333c-29.457 0-53.333-23.878-53.333-53.333s23.876-53.333 53.333-53.333c29.457 0 53.333 23.878 53.333 53.333s-23.876 53.333-53.333 53.333zM1333.333 469.333c-29.457 0-53.333-23.878-53.333-53.333s23.876-53.333 53.333-53.333c29.457 0 53.333 23.878 53.333 53.333s-23.876 53.333-53.333 53.333zM586.667 256c-29.455 0-53.333-23.878-53.333-53.333s23.878-53.333 53.333-53.333h426.667c29.457 0 53.333 23.878 53.333 53.333s-23.876 53.333-53.333 53.333h-426.667zM266.875 255.166c-29.57 0-53.542-23.971-53.542-53.542s23.972-53.542 53.542-53.542h106.25c29.571 0 53.542 23.972 53.542 53.542s-23.971 53.542-53.542 53.542h-106.25zM1228.544 255.166c-29.577 0-53.547-23.971-53.547-53.542s23.97-53.542 53.547-53.542h106.249c29.568 0 53.538 23.972 53.538 53.542s-23.97 53.542-53.538 53.542h-106.249z" />
<glyph unicode="&#xe914;" glyph-name="warning" d="M560.743 200.259c0 27.364-22.184 49.548-49.549 49.548-27.364 0-49.548-22.184-49.548-49.548s22.184-49.549 49.548-49.549c27.365 0 49.549 22.184 49.549 49.549zM550.671 352.971c-1.823-20.2-18.802-36.030-39.477-36.030-21.891 0-39.638 17.747-39.638 39.639v221.086l0.162 3.608c1.823 20.201 18.801 36.031 39.476 36.031 21.892 0 39.639-17.747 39.639-39.639v-221.086l-0.162-3.609zM466.034 894.040c16.285 9.771 34.302 14.76 53.297 14.76s37.011-4.989 53.297-14.76c16.167-9.7 29.047-23.128 38.196-39.813l391.909-718.834c15.29-31.897 13.468-65.673-4.761-96.71-9.227-15.742-22.047-28.423-37.942-37.584-15.972-9.205-33.512-13.9-51.936-13.9l-785.277 0.281c-15.633 1.138-30.503 5.733-44.187 13.619-15.896 9.161-28.715 21.842-37.927 37.556-19.563 33.311-20.138 69.526-1.631 102.836l389.516 714.053 3.361 5.584c8.749 13.522 20.226 24.597 34.084 32.911zM531.84 826.060c-3.963 2.378-7.882 3.463-12.509 3.463s-8.546-1.085-12.509-3.463c-3.499-2.099-6.153-4.66-7.546-6.764l-1.841-3.032-388.912-713.003c-4.968-8.942-4.868-15.247 0.558-24.486 2.246-3.831 5.119-6.673 9.133-8.987 3.382-1.95 6.696-2.974 8.91-3.161l3.443-0.151h777.528c4.525 0 8.414 1.041 12.353 3.312 4.014 2.313 6.888 5.156 9.15 9.014 5.064 8.622 5.382 14.533 2.188 21.239l-1.795 3.489-388.721 712.656c-2.367 4.316-5.349 7.425-9.43 9.873z" />
<glyph unicode="&#xe915;" glyph-name="bot-settings" horiz-adv-x="964" d="M461.881 612.513c0-33.715-27.331-61.046-61.045-61.046s-61.045 27.331-61.045 61.046c0 33.714 27.331 61.045 61.045 61.045s61.045-27.331 61.045-61.045zM576.938 551.467c33.716 0 61.044 27.331 61.044 61.046s-27.329 61.045-61.044 61.045c-33.715 0-61.046-27.331-61.046-61.045s27.331-61.046 61.046-61.046zM519.004 846.618c0 16.633-13.484 30.118-30.118 30.118s-30.118-13.484-30.118-30.118v-27.868h-111.945c-84.063 0-152.209-68.147-152.209-152.209v-108.032c0-84.063 68.146-152.209 152.209-152.209h284.141c84.064 0 152.209 68.147 152.209 152.209v108.032c0 84.063-68.144 152.209-152.209 152.209h-111.961v27.868zM254.851 666.541c0 50.796 41.178 91.974 91.973 91.974h284.141c50.796 0 91.973-41.178 91.973-91.974v-108.032c0-50.796-41.177-91.974-91.973-91.974h-284.141c-50.795 0-91.973 41.178-91.973 91.974v108.032zM269.433 251.326c12.669 10.776 14.202 29.786 3.424 42.454s-29.786 14.203-42.455 3.421l-54.771-46.592-14.749-12.896c-10.85-9.487-13.457-25.329-6.219-37.792l9.859-16.986 48.829-81.637 9.756-16.848c7.054-12.18 21.604-17.848 35.039-13.649l19.022 5.933 56.5 18.89c13.106-9.162 27.143-17.39 42.145-24.305l11.265-54.718 3.761-19.095c2.78-14.119 15.16-24.299 29.55-24.299h136.968c14.365 0 26.731 10.144 29.537 24.233l3.814 19.143 11.236 54.742c14.998 6.909 29.033 15.137 42.134 24.299l55.928-18.703 19.595-6.12c13.414-4.192 27.943 1.452 35.009 13.601l9.818 16.878 48.604 81.33 10.065 17.257c7.282 12.487 4.668 28.383-6.222 37.876l-14.487 12.631-55.043 46.827c-12.667 10.782-31.678 9.246-42.454-3.421-10.782-12.667-9.246-31.678 3.421-42.454l50.128-42.647-43.725-73.162-66.403 22.203c-9.595 3.211-20.161 1.385-28.13-4.855-16.956-13.294-35.354-24.209-55.299-31.828-9.615-3.668-16.689-11.993-18.758-22.076l-13.449-65.518h-87.567l-13.493 65.536c-2.075 10.071-9.146 18.39-18.754 22.058-19.945 7.62-38.343 18.534-55.301 31.828-7.964 6.24-18.531 8.066-28.128 4.855l-66.37-22.191-43.754 73.156 50.124 42.641zM581.811 298.4c15.357-6.391 22.626-24.016 16.236-39.376-17.76-42.683-59.915-72.806-109.149-72.806-49.068 0-91.103 29.919-108.967 72.373-6.452 15.33 0.746 32.991 16.078 39.442s32.99-0.747 39.441-16.077c8.796-20.902 29.467-35.503 53.447-35.503 24.063 0 44.793 14.697 53.537 35.714 6.39 15.354 24.019 22.624 39.376 16.233z" />
<glyph unicode="&#xe918;" glyph-name="help" d="M364.521 545.63c0 127.52 126.515 185.599 219.671 139.502 58.844-29.118 94.72-98.896 82.913-156.020-8.771-42.443-27.126-67.27-64.159-97.552l-14.285-11.331c-36.163-28.365-46.316-43.069-46.316-77.133 0-16.507-13.384-29.885-29.891-29.885-16.505 0-29.887 13.379-29.887 29.885 0 53.617 17.975 82.463 61.672 118.149l14.095 11.17c32.128 25.262 44.39 40.528 50.232 68.796 6.195 29.971-15.964 73.060-50.888 90.343-56.654 28.035-133.382-7.188-133.382-85.925 0-16.507-13.382-29.889-29.889-29.889s-29.889 13.382-29.889 29.889zM551.327 231.578c0-20.122-16.307-36.429-36.429-36.429-20.117 0-36.426 16.307-36.426 36.429 0 20.116 16.309 36.424 36.426 36.424 20.122 0 36.429-16.307 36.429-36.424zM512.010 903.1c-251.35 0-455.11-203.76-455.11-455.11s203.76-455.112 455.11-455.112c251.351 0 455.112 203.761 455.112 455.112 0 251.35-203.761 455.11-455.112 455.11zM512.010 835.676c214.113 0 387.686-173.574 387.686-387.686s-173.573-387.686-387.686-387.686c-214.113 0-387.686 173.573-387.686 387.686s173.574 387.686 387.686 387.686z" />
<glyph unicode="&#xe919;" glyph-name="support" d="M477.538 896c-326.846 0-343.538-215.115-344.615-386.077-39.846-15.615-68.923-53.846-68.923-96.386 0-54.922 41.192-137.846 103.385-137.846 5.385 0 11.039 0.538 16.692 1.075 50.615-156.959 175.539-276.767 293.462-276.767 56.268 0 114.154 28.001 165.037 74.307-20.731-3.231-41.19-5.381-61.65-5.381h-103.387c-81.038 0-194.115 100.419-233.692 249.846l-11.308 39.306-32.308-8.079c-19.923-5.115-30.154-5.381-32.846-5.381-11.038 1.347-34.462 40.653-34.462 68.92 0 16.691 17.5 33.388 36.616 34.463l32.308 2.154v32.308c0 214.307 18.577 344.615 275.692 344.615 8.077 0 104.729-0.269 168.539-0.539l-23.424-47.654c-3.502-8.346-16.154-36.346-60.037-72.423-50.616-42-138.385-86.154-291.847-86.154v-68.923c166.923 0 272.729 49.808 336.002 101.769 33.654 28 54.113 55.461 67.036 76.731 70.81-36.077 79.421-107.693 79.421-247.423v-169.886c-7.808-86.692-126.807-105.805-172.303-105.805h-34.463c0 37.96-30.961 68.92-68.924 68.92-37.961 0-68.923-30.961-68.923-68.92 0-37.965 30.962-68.925 68.923-68.925h103.387c95.037 0 199.767 40.387 231.803 129.229h43.889c56.806 0 103.383 46.582 103.383 103.388v77.537c0 56.808-46.577 103.385-103.383 103.385h-35.809c-3.502 98.808-20.46 191.692-114.959 240.154l51.154 103.385-55.465 0.269c0 0-211.884 0.808-223.999 0.808zM374.154 482.462c-19.116 0-34.461-15.346-34.461-34.462 0-19.113 15.346-34.463 34.461-34.463s34.462 15.35 34.462 34.463c0 19.116-15.346 34.462-34.462 34.462zM580.925 482.462c-19.118 0-34.463-15.346-34.463-34.462 0-19.113 15.345-34.463 34.463-34.463 19.113 0 34.458 15.35 34.458 34.463 0 19.116-15.345 34.462-34.458 34.462zM822.154 482.462h34.463c19.384 0 34.458-15.077 34.458-34.462v-77.537c0-19.384-15.073-34.463-34.458-34.463h-34.463v146.462z" />
<glyph unicode="&#xe91a;" glyph-name="hamgerger" d="M128 800c-17.673 0-32-14.327-32-32s14.327-32 32-32h768c17.674 0 32 14.327 32 32s-14.326 32-32 32h-768zM128 480c-17.673 0-32-14.327-32-32s14.327-32 32-32h768c17.674 0 32 14.326 32 32s-14.326 32-32 32h-768zM128 160c-17.673 0-32-14.326-32-32s14.327-32 32-32h768c17.674 0 32 14.326 32 32s-14.326 32-32 32h-768z" />
<glyph unicode="&#xe91b;" glyph-name="attachment" d="M512 832c141.993 0 256-117.754 256-261.814v-293.245c0-18.632-15.749-33.736-35.174-33.736-18.345 0-33.408 13.471-35.026 30.664l-0.143 3.072v293.245c0 107.871-83.727 194.348-185.656 194.348-101.928 0-185.655-86.477-185.655-194.348v-325.829c0-62.346 52.7-112.891 117.708-112.891s117.708 50.545 117.708 112.891v325.829c0 26.357-22.277 47.725-49.761 47.725-26.337 0-47.896-19.623-49.646-44.457l-0.115-3.268v-293.245c0-18.632-15.747-33.736-35.172-33.736-18.346 0-33.412 13.471-35.029 30.664l-0.143 3.072v293.245c0 63.618 53.773 115.19 120.106 115.19 66.335 0 120.105-51.572 120.105-115.19v-325.829c-0.026-99.584-84.209-180.357-188.052-180.357-103.859 0-188.053 80.748-188.053 180.357v325.829c0 144.060 114.009 261.814 256 261.814z" />
<glyph unicode="&#xe91c;" glyph-name="search" horiz-adv-x="964" d="M439.561 798.441c-182.889 0-331.15-148.656-331.15-332.034 0-183.38 148.261-332.034 331.15-332.034 79.979 0 153.336 28.431 210.565 75.758l153.534-152.052 2.289-2.060c12.601-10.3 31.19-9.493 42.851 2.343 12.384 12.571 12.258 32.834-0.283 45.255l-153.263 151.787c47.146 57.362 75.457 130.869 75.457 211.004 0 183.377-148.263 332.034-331.15 332.034zM439.561 734.434c147.633 0 267.312-120 267.312-268.027s-119.679-268.028-267.312-268.028c-147.633 0-267.313 120.001-267.313 268.028s119.68 268.027 267.313 268.027z" />
</font>
</defs>
</svg>
