<svg xmlns="http://www.w3.org/2000/svg" width="218" height="95" viewBox="0 0 218 95">
    <g fill="none" fill-rule="evenodd">
        <path fill="#E94848" fill-rule="nonzero" d="M68.6 71.19V61.14h2.7c.58 0 1.025-.17 1.335-.51.31-.34.465-.74.465-1.2v-5.22h-4.5V27.48h-8.88L39.5 54.66l.96 4.59c.12.54.415.99.885 1.35.47.36.995.54 1.575.54H60.5v10.05h8.1zm-8.1-16.98H49.25L60.8 38.04c-.1.86-.175 1.695-.225 2.505-.05.81-.075 1.565-.075 2.265v11.4zm45.96 17.46c2.32 0 4.475-.45 6.465-1.35 1.99-.9 3.71-2.27 5.16-4.11 1.45-1.84 2.585-4.16 3.405-6.96.82-2.8 1.23-6.11 1.23-9.93 0-3.82-.41-7.13-1.23-9.93-.82-2.8-1.955-5.12-3.405-6.96-1.45-1.84-3.17-3.205-5.16-4.095-1.99-.89-4.145-1.335-6.465-1.335-2.32 0-4.465.445-6.435 1.335-1.97.89-3.675 2.255-5.115 4.095-1.44 1.84-2.565 4.16-3.375 6.96s-1.215 6.11-1.215 9.93c0 3.82.405 7.13 1.215 9.93s1.935 5.12 3.375 6.96c1.44 1.84 3.145 3.21 5.115 4.11 1.97.9 4.115 1.35 6.435 1.35zm0-7.47c-.82 0-1.625-.205-2.415-.615-.79-.41-1.49-1.17-2.1-2.28-.61-1.11-1.1-2.625-1.47-4.545-.37-1.92-.555-4.4-.555-7.44 0-3.02.185-5.495.555-7.425.37-1.93.86-3.445 1.47-4.545s1.31-1.855 2.1-2.265c.79-.41 1.595-.615 2.415-.615.82 0 1.63.205 2.43.615.8.41 1.515 1.165 2.145 2.265.63 1.1 1.135 2.615 1.515 4.545.38 1.93.57 4.405.57 7.425 0 3.04-.19 5.52-.57 7.44-.38 1.92-.885 3.435-1.515 4.545-.63 1.11-1.345 1.87-2.145 2.28-.8.41-1.61.615-2.43.615zm61.74 6.99V61.14h2.7c.58 0 1.025-.17 1.335-.51.31-.34.465-.74.465-1.2v-5.22h-4.5V27.48h-8.88L139.1 54.66l.96 4.59c.12.54.415.99.885 1.35.47.36.995.54 1.575.54h17.58v10.05h8.1zm-8.1-16.98h-11.25l11.55-16.17c-.1.86-.175 1.695-.225 2.505-.05.81-.075 1.565-.075 2.265v11.4z"/>
        <path stroke="#E5E8EC" stroke-width="10" d="M5 5h208v85H5z"/>
    </g>
</svg>
