<svg xmlns="http://www.w3.org/2000/svg" width="78" height="86" viewBox="0 0 78 86">
    <g fill="none" fill-rule="evenodd">
        <path fill="#F2F3F5" d="M39 86c20.987 0 39-19.252 39-43S59.987 0 39 0 0 19.252 0 43s18.013 43 39 43z"/>
        <path fill="#8A959F" d="M36.935 63c3.155 0 4.835 2.765 5.062 5.332a.608.608 0 0 1-.599.668.606.606 0 0 1-.597-.558c-.18-2.03-1.466-4.218-3.866-4.218-2.205 0-3.485 1.266-4.836 3.307a.593.593 0 0 1-.834.165.62.62 0 0 1-.162-.85C32.425 64.848 34.047 63 36.935 63zm6.433-7.96a.6.6 0 0 1 .33.776c-.383.976-.518 2.139-.518 2.904 0 2.69 1.738 5.438 4.537 7.173.279.173.366.54.197.82a.59.59 0 0 1-.505.287.576.576 0 0 1-.306-.09C43.956 64.96 42 61.823 42 58.72c0-1.135.224-2.385.601-3.345a.596.596 0 0 1 .767-.336zM38.937 38C42.733 38 45 41.384 45 44.654c0 4.772-3.543 9.005-5.655 11.103-3.811 3.785-7.6 6.912-12.29 10.14a.566.566 0 0 1-.325.103.583.583 0 0 1-.49-.274.626.626 0 0 1 .165-.848c4.626-3.187 8.367-6.273 12.124-10.005 1.977-1.962 5.292-5.902 5.292-10.22 0-2.632-1.712-5.427-4.884-5.427-2.817 0-4.936 3.304-6.985 6.499-1.08 1.681-2.098 3.271-3.227 4.417-3.093 3.14-6.295 5.005-9.86 6.953a.58.58 0 0 1-.797-.257.623.623 0 0 1 .248-.826c3.481-1.903 6.606-3.722 9.586-6.747 1.04-1.054 2.025-2.591 3.067-4.217C33.192 41.584 35.488 38 38.937 38zm.187-5c6.558 0 10.964 5.628 10.964 10.885 0 2.38-.395 4.305-.745 6.003-.288 1.388-.558 2.7-.558 4.037 0 3 1.012 6.976 5.836 8.902a.608.608 0 0 1 .337.787.598.598 0 0 1-.775.344c-5.45-2.177-6.593-6.657-6.593-10.033 0-1.461.282-2.834.582-4.289.354-1.717.722-3.495.722-5.751 0-4.054-3.396-9.669-9.77-9.669-5.37 0-8.613 4.2-10.069 6.701-1.398 2.408-5.295 8.243-11.251 10.479a.599.599 0 0 1-.767-.36.61.61 0 0 1 .354-.779c3.882-1.458 7.858-5.18 10.635-9.957C29.61 37.575 33.16 33 39.124 33zm.56 11.074c.29.155.401.525.246.821-4.047 7.763-11.49 13.538-17.023 17.014a.588.588 0 0 1-.311.091.595.595 0 0 1-.508-.29.616.616 0 0 1 .195-.837c5.407-3.4 12.674-9.03 16.597-16.549a.582.582 0 0 1 .805-.25zM39.049 28c9.856 0 15.956 7.606 15.956 14.654 0 3.016-.317 4.426-.597 5.668l-.085.384c-.21.963-.391 1.975-.391 3.774 0 3.566.901 5.11 3.712 6.357a.61.61 0 0 1 .308.797.594.594 0 0 1-.785.315c-3.702-1.64-4.426-3.98-4.426-7.469 0-2.175.246-3.27.508-4.43.278-1.237.567-2.517.567-5.396 0-6.463-5.646-13.438-14.767-13.438-6.888 0-10.221 3.502-13.045 7.091a58.68 58.68 0 0 0-1.014 1.35c-1.752 2.382-4.154 5.644-7.17 6.89a.595.595 0 0 1-.775-.335.611.611 0 0 1 .328-.791c2.71-1.118 4.995-4.225 6.666-6.493.374-.508.721-.98 1.037-1.381C28.077 31.727 31.632 28 39.048 28zm20.401 8.348C60.817 39.108 61 41.585 61 43.646c0 4.024-1.062 7.802-2.842 10.107a.657.657 0 0 1-.518.247.657.657 0 0 1-.377-.116.585.585 0 0 1-.139-.848c1.601-2.072 2.595-5.669 2.595-9.39 0-2.024-.172-4.248-1.431-6.785a.593.593 0 0 1 .309-.805c.317-.138.7-.012.852.292zM38.819 22c7.704 0 14.838 3.968 19.082 10.616a.626.626 0 0 1-.168.85.585.585 0 0 1-.825-.175c-4.024-6.3-10.786-10.062-18.09-10.062-10.528 0-16.3 7.13-19.726 12.495a.594.594 0 0 1-.497.276.584.584 0 0 1-.328-.102.625.625 0 0 1-.168-.851C21.677 29.446 27.717 22 38.819 22zm.876-5c6.706.024 13.315 2.924 18.134 7.958a.62.62 0 0 1-.009.865.59.59 0 0 1-.847-.007c-4.596-4.803-10.894-7.568-17.281-7.589h-.095c-6.803 0-12.877 2.592-17.57 7.506a.591.591 0 0 1-.847.01.623.623 0 0 1-.008-.868C26.094 19.723 32.464 17 39.597 17h.098z"/>
    </g>
</svg>
