<svg width="67" height="50" viewBox="0 0 67 50" fill="none" xmlns="http://www.w3.org/2000/svg">
<g clip-path="url(#clip0)">
<path d="M21.9846 26.6961C21.9935 26.6857 21.9735 26.5864 21.9497 26.4862C21.6508 24.8956 20.1753 14.6008 30.6615 6.67378C30.6615 6.67378 37.868 1.49543 42.761 4.18931C41.7804 3.41173 40.209 2.17611 39.4771 1.57343C37.8019 0.189857 36.5778 0.124153 36.5778 0.124153C33.8313 -0.137246 31.7119 0.862499 31.7119 0.862499C22.8232 4.29425 21.4008 13.984 21.4008 13.984C20.1697 20.2509 21.1508 24.283 21.858 26.4205C21.8617 26.4309 21.9618 26.724 21.9846 26.6961Z" fill="#5E5E5E"/>
<path d="M39.8336 4.57959C39.6609 5.33637 39.2102 6.866 36.0702 8.64522C35.5422 8.94774 35.3602 8.98367 34.9905 9.21009C34.6841 9.40247 34.0253 9.95458 34.7409 10.7232C35.0776 11.0857 37.9186 13.0975 39.6302 14.4173C39.835 14.2551 40.0944 14.0419 40.2117 13.9422C40.2787 13.8864 40.2662 13.8973 40.2881 13.8784C40.9823 13.2814 41.7943 12.3691 42.5825 11.0994C43.4616 9.6582 43.9984 7.9773 43.321 6.50439C43.3205 6.50392 42.6887 4.74078 39.8336 4.57959Z" fill="#464646"/>
<path d="M39.228 14.8437C37.6194 13.7457 36.7515 13.2427 33.8396 11.6318C33.8396 11.6318 33.0095 11.2243 32.9597 10.7417C32.9597 10.7417 32.9536 10.7266 32.955 10.6978C32.9401 10.9648 32.6915 15.0342 32.0494 18.1994C32.0266 18.3332 31.9479 18.6385 31.9949 19.0758C32.0685 19.7309 32.461 20.1615 32.6412 20.3695C32.9164 20.6848 34.3853 22.0065 37.8833 24.6252C39.4347 25.787 41.9457 28.0668 42.0383 30.5215C42.0402 30.5542 42.0365 30.9758 41.9699 31.2292C41.9421 31.3725 41.9037 31.5134 41.8549 31.6508C41.8516 31.6683 41.8381 31.7042 41.8381 31.7042C41.8381 31.7085 41.8423 31.7203 41.8479 31.7141C41.8614 31.7113 41.8661 31.6844 41.881 31.6574C41.8907 31.6447 41.9047 31.6224 41.9261 31.5884C42.0393 31.3927 44.0953 27.1924 44.4804 26.2711C44.7099 25.7228 46.367 23.0705 43.5958 19.0309C43.5953 19.0309 42.374 17.1174 39.228 14.8437Z" fill="#5E5E5E"/>
<path d="M40.0697 28.1189C39.9859 27.9813 39.9007 27.831 39.8025 27.6774C39.8025 27.6774 35.0497 31.397 28.678 28.1992C28.678 28.1992 23.7031 25.8849 23.1634 20.0854C23.1071 20.3289 23.0563 20.5775 23.0098 20.828C21.3108 29.6518 27.7929 34.7564 34.186 34.8387C39.0431 34.8996 42.2459 31.7359 40.0697 28.1189ZM11.5417 45.8061H14.9606V44.3256H11.5417V41.8402H15.7288V40.3578H9.79569V49.8339H15.9467V48.3548H11.5417V45.8061ZM54.1773 45.8349V45.8056C55.1844 45.4043 55.7938 44.3492 55.7938 43.22C55.7938 41.9565 55.1844 41.0541 54.228 40.6291C53.8109 40.4377 53.3364 40.3578 52.2977 40.3578H49.012V49.8381H50.7533V46.301H52.6185L54.5293 49.8381H56.4699L54.4934 46.301C54.3077 45.9658 54.1773 45.8349 54.1773 45.8349ZM52.51 44.8007H50.7538V41.8411H52.2707C53.6353 41.8411 54.0246 42.4027 54.0246 43.3112C54.0241 44.2533 53.4444 44.8007 52.51 44.8007ZM5.41535 44.8555V44.8276C6.14588 44.4414 6.57562 43.6818 6.57562 42.8012C6.57562 41.2417 5.34645 40.3578 3.62234 40.3578H0V49.8381H3.65959C5.43025 49.8381 6.96859 48.9835 6.96859 47.0885C6.96859 46.1223 6.47226 45.167 5.41535 44.8555ZM1.71898 41.8255H3.59487C4.4078 41.8255 4.81613 42.3223 4.81613 43.0073C4.81613 43.6979 4.38266 44.2306 3.62746 44.2306H1.71898V41.8255ZM3.80299 48.3841H1.71898V45.6198H3.80299C4.68018 45.6198 5.19513 46.197 5.19513 46.9892C5.19513 47.8018 4.69554 48.3841 3.80299 48.3841ZM20.6208 40.3578H18.8795V49.8381H24.9564V48.3529H20.6208V40.3578ZM62.9473 40.3578H59.054V49.8381H60.7981V46.5624H62.9473C64.7445 46.5624 65.9951 45.2847 65.9951 43.444C65.9951 41.5977 64.7449 40.3578 62.9473 40.3578ZM62.6209 45.0715H60.7981V41.8392H62.6525C63.6368 41.8392 64.2286 42.4641 64.2286 43.4445C64.2286 44.4305 63.6373 45.0715 62.6209 45.0715ZM31.2457 48.422C29.2469 48.422 28.0159 46.8342 28.0159 45.0351C28.0159 43.2668 29.2036 41.7773 31.2308 41.7773C32.7543 41.7773 33.8535 42.7771 33.8535 42.7771L34.6851 41.4894C34.6851 41.4894 33.4848 40.1995 31.1507 40.1995C28.3232 40.1995 26.2215 42.3077 26.2215 45.0602C26.2215 47.849 28.2459 49.9979 31.1768 49.9979C33.6207 49.9979 34.9454 48.4621 34.9454 48.4621L34.0244 47.2223C34.0249 47.2232 32.9042 48.422 31.2457 48.422ZM41.554 40.1999C38.7307 40.1999 36.5954 42.3176 36.5954 45.0351C36.5954 47.8249 38.7307 50.0003 41.554 50.0003C44.3737 50.0003 46.5108 47.8249 46.5108 45.0351C46.5112 42.3181 44.3737 40.1999 41.554 40.1999ZM41.554 48.422C39.7964 48.422 38.3945 46.9817 38.3945 45.0351C38.3945 43.1618 39.7964 41.7773 41.554 41.7773C43.3061 41.7773 44.7117 43.1618 44.7117 45.0351C44.7117 46.9817 43.3061 48.422 41.554 48.422Z" fill="#464646"/>
</g>
<defs>
<clipPath id="clip0">
<rect width="66.1017" height="50" fill="white"/>
</clipPath>
</defs>
</svg>
