<?xml version="1.0" encoding="UTF-8"?>
<svg width="9px" height="16px" viewBox="0 0 9 16" version="1.1" xmlns="http://www.w3.org/2000/svg" xmlns:xlink="http://www.w3.org/1999/xlink">
    <!-- Generator: Sketch 52.3 (67297) - http://www.bohemiancoding.com/sketch -->
    <title>caretLeftGray</title>
    <desc>Created with Sketch.</desc>
    <g id="Page-1" stroke="none" stroke-width="1" fill="none" fill-rule="evenodd">
        <g id="icons" transform="translate(-187.000000, -226.000000)" fill="#8A959F">
            <path d="M195.56498,233.181052 C195.759756,233.375828 195.857143,233.60648 195.857143,233.873016 C195.857143,234.139552 195.759756,234.370204 195.56498,234.56498 L188.676091,241.453869 C188.481315,241.648645 188.250663,241.746032 187.984127,241.746032 C187.717591,241.746032 187.486939,241.648645 187.292163,241.453869 C187.097387,241.259093 187,241.028441 187,240.761905 L187,226.984127 C187,226.717591 187.097387,226.486939 187.292163,226.292163 C187.486939,226.097387 187.717591,226 187.984127,226 C188.250663,226 188.481315,226.097387 188.676091,226.292163 L195.56498,233.181052 Z" id="caretLeftGray" transform="translate(191.428572, 233.873016) scale(-1, 1) translate(-191.428572, -233.873016) "></path>
        </g>
    </g>
</svg>