<?xml version="1.0" encoding="UTF-8"?>
<svg width="16px" height="25px" viewBox="0 0 16 25" version="1.1" xmlns="http://www.w3.org/2000/svg" xmlns:xlink="http://www.w3.org/1999/xlink">
    <!-- Generator: Sketch 53.2 (72643) - https://sketchapp.com -->
    <title>1082912</title>
    <desc>Created with Sketch.</desc>
    <g id="Page-1" stroke="none" stroke-width="1" fill="none" fill-rule="evenodd">
        <g id="1082912" fill-rule="nonzero">
            <path d="M15.9983057,13.2569653 C15.9983057,12.8507154 15.6688629,12.5212726 15.2624247,12.5212726 C14.8559865,12.5212726 14.5265437,12.8507154 14.5265437,13.2569653 C14.5265437,16.8563629 11.5984563,19.7844503 7.99905875,19.7844503 C4.3998494,19.7844503 1.47176202,16.8563629 1.47176202,13.2569653 C1.47176202,12.8507154 1.14231928,12.5212726 0.735881012,12.5212726 C0.329442795,12.5212726 0,12.8507154 0,13.2569653 C0,17.4198042 3.19615961,20.8492093 7.26336598,21.2219503 L7.26336598,23.2029368 L4.53237952,23.2029368 C4.12594125,23.2029368 3.79649851,23.5323795 3.79649851,23.9388178 C3.79649851,24.345256 4.12594125,24.6746988 4.53237952,24.6746988 L11.4659262,24.6746988 C11.8721762,24.6746988 12.2018072,24.345256 12.2018072,23.9388178 C12.2018072,23.5323795 11.8721762,23.2029368 11.4659262,23.2029368 L8.73493976,23.2029368 L8.73493976,21.2219503 C12.8021461,20.8493976 15.9983057,17.4198042 15.9983057,13.2569653 Z" id="Path" fill="#3B4958"></path>
            <path d="M15.9983057,13.2569653 C15.9983057,12.8507154 15.6688629,12.5212726 15.2624247,12.5212726 C14.8559865,12.5212726 14.5265437,12.8507154 14.5265437,13.2569653 C14.5265437,16.8563629 11.5984563,19.7844503 7.99905875,19.7844503 C7.9939759,19.7844503 7.98889306,19.7842621 7.98362198,19.7842621 L7.98362198,24.6746988 L11.4659262,24.6746988 C11.8721762,24.6746988 12.2018072,24.345256 12.2018072,23.9388178 C12.2018072,23.5323795 11.8721762,23.2029368 11.4659262,23.2029368 L8.73493976,23.2029368 L8.73493976,21.2221386 C12.8021461,20.8493976 15.9983057,17.4198042 15.9983057,13.2569653 Z" id="Path" fill="#17202A"></path>
            <path d="M7.99905875,17.96875 C5.40116718,17.96875 3.28746236,15.8550452 3.28746236,13.2569653 L3.28746236,4.71159639 C3.28746236,2.11370482 5.40116718,0 7.99905875,0 C10.5971386,0 12.7108434,2.11370482 12.7108434,4.71159639 L12.7108434,13.2569653 C12.7108434,15.8550452 10.5971386,17.96875 7.99905875,17.96875 Z" id="Path" fill="#FF7045"></path>
            <path d="M7.99905875,0 C7.9939759,0 7.98889306,0.000188253012 7.98362198,0.000188253012 L7.98362198,17.9685617 C7.98889306,17.9685617 7.9939759,17.96875 7.99905875,17.96875 C10.5971386,17.96875 12.7108434,15.8550452 12.7108434,13.2569653 L12.7108434,4.71159639 C12.7108434,2.11370482 10.5971386,0 7.99905875,0 Z" id="Path" fill="#F64C1C"></path>
        </g>
    </g>
</svg>