<?xml version="1.0" encoding="UTF-8"?>
<svg width="171px" height="77px" viewBox="0 0 171 77" version="1.1" xmlns="http://www.w3.org/2000/svg" xmlns:xlink="http://www.w3.org/1999/xlink">
    <!-- Generator: Sketch 53.2 (72643) - https://sketchapp.com -->
    <title>mini-table</title>
    <desc>Created with Sketch.</desc>
    <g id="Page-1" stroke="none" stroke-width="1" fill="none" fill-rule="evenodd">
        <g id="mini-table">
            <g id="Group" transform="translate(0.000000, 0.087000)" fill="#E5E8EC" fill-rule="nonzero">
                <rect id="Rectangle" x="0" y="0" width="74" height="12" rx="2"></rect>
                <rect id="Rectangle" x="114" y="0" width="56" height="12" rx="2"></rect>
            </g>
            <g id="Group" transform="translate(0.000000, 37.087000)" fill="#EFF1F4" fill-rule="nonzero">
                <rect id="Rectangle" x="0" y="0" width="64" height="12" rx="2"></rect>
                <path d="M2,27 L42,27 C43.1045695,27 44,27.8954305 44,29 L44,37 C44,38.1045695 43.1045695,39 42,39 L2,39 C0.8954305,39 1.3527075e-16,38.1045695 0,37 L0,29 C-1.3527075e-16,27.8954305 0.8954305,27 2,27 Z" id="Path"></path>
                <rect id="Rectangle" x="114" y="0" width="40" height="12" rx="2"></rect>
                <rect id="Rectangle" x="114" y="27" width="50" height="12" rx="2"></rect>
            </g>
            <path d="M0.5,24.587 L170.5,24.587 M97.5,0.587 L97.5,76.587" id="Shape" stroke="#E5E8EC" stroke-width="0.7" stroke-linecap="square"></path>
        </g>
    </g>
</svg>