<?xml version="1.0" encoding="UTF-8"?>
<svg width="15px" height="16px" viewBox="0 0 15 16" version="1.1" xmlns="http://www.w3.org/2000/svg" xmlns:xlink="http://www.w3.org/1999/xlink">
    <!-- Generator: Sketch 53.2 (72643) - https://sketchapp.com -->
    <title>settings</title>
    <desc>Created with Sketch.</desc>
    <g id="Page-1" stroke="none" stroke-width="1" fill="none" fill-rule="evenodd" stroke-linecap="round" stroke-linejoin="round">
        <g id="settings" transform="translate(1.000000, 1.000000)" stroke="#8A959F" stroke-width="2">
            <path d="M5.055,0.44 L4.975,0.846 L4.67,2.329 C4.19009686,2.5156508 3.74105648,2.77354561 3.338,3.094 L1.845,2.594 L1.444,2.47 L1.236,2.829 L0.208,4.547 L0,4.905 L0.305,5.172 L1.46,6.154 C1.418,6.412 1.364,6.666 1.364,6.936 C1.364,7.206 1.418,7.46 1.46,7.717 L0.305,8.7 L0,8.966 L0.208,9.324 L1.236,11.043 L1.444,11.403 L1.845,11.277 L3.338,10.777 C3.738,11.091 4.181,11.356 4.67,11.542 L4.975,13.026 L5.055,13.432 L7.944,13.432 L8.024,13.026 L8.329,11.542 C8.80884199,11.3556578 9.25787906,11.098102 9.661,10.778 L11.154,11.277 L11.555,11.402 L11.765,11.043 L12.791,9.324 L13,8.966 L12.695,8.7 L11.539,7.717 C11.582,7.46 11.635,7.206 11.635,6.936 C11.635,6.666 11.582,6.412 11.539,6.154 L12.695,5.172 L13,4.905 L12.791,4.547 L11.764,2.829 L11.555,2.47 L11.154,2.595 L9.661,3.094 C9.25794352,2.77354561 8.80890314,2.5156508 8.329,2.329 L8.025,0.846 L7.944,0.44 L5.055,0.44 L5.055,0.44 Z" id="Path"></path>
            <path d="M8.357,6.939 C8.357,7.96459278 7.52559278,8.796 6.5,8.796 C5.47440722,8.796 4.643,7.96459278 4.643,6.939 C4.64300002,5.91340723 5.47440723,5.08200004 6.5,5.08200004 C7.52559277,5.08200004 8.35699998,5.91340723 8.357,6.939 Z" id="Path"></path>
        </g>
    </g>
</svg>