<svg xmlns="http://www.w3.org/2000/svg" width="203" height="86" viewBox="0 0 203 86">
    <g fill="#8A959F" fill-rule="evenodd">
        <g fill-rule="nonzero">
            <path d="M24.05 85.864h154.44v-1.333H24.05zM202.456 84.531h-18v1.333h18zM18.205 84.531H.204v1.333h18z"/>
            <path d="M44.345 85.531V62.874h-1.326V85.53z"/>
            <path d="M43.934 73.847c-4.576 0-8.285-3.73-8.285-8.33 0-3.028 2.595-7.672 7.771-14.06l.514-.634.514.635c5.175 6.387 7.77 11.031 7.77 14.06 0 4.6-3.709 8.33-8.284 8.33zm-6.96-8.33c0 3.865 3.117 6.997 6.96 6.997s6.96-3.132 6.96-6.997c0-2.523-2.316-6.754-6.96-12.578-4.644 5.824-6.96 10.055-6.96 12.578z"/>
            <path d="M40.347 66.871l2.923 2.945.937-.944-2.923-2.944zM157.017 85.39V53.685h-1.326V85.39z"/>
            <path d="M156.606 68.538c-6.406 0-11.599-5.221-11.599-11.662 0-6.44 5.193-11.661 11.599-11.661 6.406 0 11.598 5.22 11.598 11.661s-5.192 11.662-11.598 11.662zm0-1.333c5.674 0 10.273-4.624 10.273-10.329 0-5.704-4.6-10.329-10.273-10.329-5.674 0-10.273 4.625-10.273 10.33 0 5.704 4.6 10.328 10.273 10.328z"/>
            <path d="M156.772 64.982l5.908-5.94-.938-.942-5.908 5.94zM151.86 57.042l3.916 3.944.936-.943-3.916-3.945z"/>
        </g>
        <path fill-rule="nonzero" d="M63.053 1.578v52.15h71.266V1.579H63.053zM135.64.24v54.825H61.733V.24h73.906z"/>
        <path fill-rule="nonzero" d="M135.309 9.601H62.076v1.337h73.233zM106.579 42.94c-4.123-4.15-10.83-4.127-14.982.05l-.47.474.934.939.47-.473c3.631-3.656 9.5-3.675 13.108-.045l.467.47.94-.945-.467-.47zM84.447 83.983l1.126 1.127-17.298.113 1.142-1.141c4.177-4.178 10.906-4.222 15.03-.099zm-12.717-.11l10.406-.07c-3.12-2.098-7.259-2.071-10.406.07zM113.48 83.983l1.127 1.127-17.298.113 1.142-1.141c4.177-4.178 10.907-4.222 15.03-.099zm-12.716-.11l10.406-.07c-3.12-2.098-7.259-2.071-10.406.07z"/>
        <path fill-rule="nonzero" d="M87.905 53.771c-8.948 5.2-10.465 19.23-3.527 31.325l.333.58 1.142-.665-.332-.579c-6.607-11.518-5.18-24.721 3.049-29.503l.571-.332-.664-1.158-.572.332zM117.01 53.771c-8.949 5.2-10.465 19.23-3.527 31.325l.332.58 1.143-.665-.332-.579c-6.608-11.518-5.18-24.721 3.048-29.503l.572-.332-.665-1.158-.571.332z"/>
        <g transform="translate(66.353 4.92)">
            <ellipse cx="1.32" cy="1.337" rx="1.32" ry="1.337"/>
            <ellipse cx="5.279" cy="1.337" rx="1.32" ry="1.337"/>
            <ellipse cx="9.238" cy="1.337" rx="1.32" ry="1.337"/>
        </g>
        <g transform="translate(82.65 19.434)">
            <path fill-rule="nonzero" d="M4.489 13.568c-2.455 0-4.29-3.04-4.29-6.686C.2 3.237 2.034.196 4.49.196s4.289 3.041 4.289 6.686-1.834 6.686-4.29 6.686zm0-1.337c1.553 0 2.969-2.347 2.969-5.349 0-3.001-1.416-5.349-2.97-5.349-1.553 0-2.969 2.348-2.969 5.35 0 3 1.416 5.348 2.97 5.348zM27.584 13.568c-2.455 0-4.29-3.04-4.29-6.686 0-3.645 1.835-6.686 4.29-6.686s4.29 3.041 4.29 6.686-1.835 6.686-4.29 6.686zm0-1.337c1.554 0 2.97-2.347 2.97-5.349 0-3.001-1.416-5.349-2.97-5.349-1.554 0-2.97 2.348-2.97 5.35 0 3 1.416 5.348 2.97 5.348z"/>
            <ellipse cx="4.489" cy="10.225" rx="1.65" ry="2.674"/>
            <ellipse cx="27.584" cy="10.225" rx="1.65" ry="2.674"/>
        </g>
    </g>
</svg>
