<?xml version="1.0" encoding="UTF-8"?>
<svg width="40px" height="40px" viewBox="0 0 40 40" version="1.1" xmlns="http://www.w3.org/2000/svg" xmlns:xlink="http://www.w3.org/1999/xlink">
    <!-- Generator: Sketch 53.2 (72643) - https://sketchapp.com -->
    <title>theme</title>
    <desc>Created with Sketch.</desc>
    <g id="Page-1" stroke="none" stroke-width="1" fill="none" fill-rule="evenodd">
        <g id="theme" fill="#F2F3F5">
            <circle id="Oval" cx="20" cy="20" r="20"></circle>
            <g id="Group" stroke-linecap="round" stroke-linejoin="round" transform="translate(11.000000, 11.000000)" stroke="#8A959F" stroke-width="2">
                <path d="M4.917,4.654 L3.312,10.647 C3.17342254,11.1614156 3.24527384,11.7098328 3.51169256,12.1711875 C3.77811129,12.6325422 4.21718959,12.9688967 4.732,13.106 L13.03,15.329 L13.03,15.677 C13.0305314,16.2094522 12.8192509,16.7202493 12.4427501,17.0967501 C12.0662493,17.4732509 11.5554522,17.6845314 11.023,17.684 L2.007,17.684 C1.47454778,17.6845314 0.963750669,17.4732509 0.587249905,17.0967501 C0.210749141,16.7202493 -0.00053138984,16.2094522 -1.77635684e-15,15.677 L-1.77635684e-15,6.66 C-1.77635684e-15,5.552 0.896,4.653 2.007,4.653 L4.917,4.653 L4.917,4.654 Z" id="Path"></path>
                <path d="M5.645,1.94 C5.78210333,1.42518959 6.11845782,0.98611129 6.5798125,0.719692564 C7.04116718,0.453273837 7.58958444,0.38142254 8.104,0.52 L16.812,2.853 C17.3268104,2.99010333 17.7658887,3.32645782 18.0323074,3.7878125 C18.2987262,4.24916718 18.3705775,4.79758444 18.232,5.312 L15.898,14.02 C15.7608847,14.5345873 15.424684,14.9734859 14.9635603,15.2398797 C14.5024365,15.5062734 13.9542771,15.5782744 13.44,15.44 L4.731,13.106 C4.21618959,12.9688967 3.77711129,12.6325422 3.51069256,12.1711875 C3.24427384,11.7098328 3.17242254,11.1614156 3.311,10.647 L5.645,1.939 L5.645,1.94 Z" id="Path"></path>
            </g>
        </g>
    </g>
</svg>