<?xml version="1.0" encoding="UTF-8"?>
<svg width="3px" height="12px" viewBox="0 0 3 12" version="1.1" xmlns="http://www.w3.org/2000/svg" xmlns:xlink="http://www.w3.org/1999/xlink">
    <!-- Generator: Sketch 53.2 (72643) - https://sketchapp.com -->
    <title>Shape</title>
    <desc>Created with Sketch.</desc>
    <g id="Page-1" stroke="none" stroke-width="1" fill="none" fill-rule="evenodd">
        <g id="verticalEllipsis" fill="#F79540" fill-rule="nonzero">
            <path d="M1.5,9 C2.32842712,9 3,9.67157288 3,10.5 C3,11.3284271 2.32842712,12 1.5,12 C0.671572875,12 1.01453063e-16,11.3284271 0,10.5 C-1.01453063e-16,9.67157288 0.671572875,9 1.5,9 Z M1.5,4.5 C2.32842712,4.5 3,5.17157288 3,6 C3,6.82842712 2.32842712,7.5 1.5,7.5 C0.671572875,7.5 1.01453063e-16,6.82842712 0,6 C-1.01453063e-16,5.17157288 0.671572875,4.5 1.5,4.5 Z M1.5,0 C2.32842712,5.07265313e-17 3,0.671572875 3,1.5 C3,2.32842712 2.32842712,3 1.5,3 C0.671572875,3 1.01453063e-16,2.32842712 0,1.5 C-1.01453063e-16,0.671572875 0.671572875,1.52179594e-16 1.5,0 Z" id="Shape"></path>
        </g>
    </g>
</svg>