<svg width="24" height="24" viewBox="0 0 24 24" fill="none" xmlns="http://www.w3.org/2000/svg">
<path d="M11.5019 7.32975C11.5019 8.16932 10.8213 8.84993 9.98174 8.84993C9.14216 8.84993 8.46156 8.16932 8.46156 7.32975C8.46156 6.49018 9.14216 5.80957 9.98174 5.80957C10.8213 5.80957 11.5019 6.49018 11.5019 7.32975Z" fill="white"/>
<path d="M14.3671 8.84993C15.2067 8.84993 15.8873 8.16932 15.8873 7.32975C15.8873 6.49018 15.2067 5.80957 14.3671 5.80957C13.5275 5.80957 12.8469 6.49018 12.8469 7.32975C12.8469 8.16932 13.5275 8.84993 14.3671 8.84993Z" fill="white"/>
<path fill-rule="evenodd" clip-rule="evenodd" d="M12.9244 1.5C12.9244 1.08579 12.5886 0.75 12.1744 0.75C11.7602 0.75 11.4244 1.08579 11.4244 1.5V2.19397H8.63674C6.54338 2.19397 4.84638 3.89097 4.84638 5.98433V8.67459C4.84638 10.7679 6.54338 12.4649 8.63674 12.4649H15.7125C17.8058 12.4649 19.5028 10.7679 19.5028 8.67459V5.98433C19.5028 3.89097 17.8058 2.19397 15.7125 2.19397H12.9244V1.5ZM6.34638 5.98433C6.34638 4.7194 7.37181 3.69397 8.63674 3.69397H15.7125C16.9774 3.69397 18.0028 4.7194 18.0028 5.98433V8.67459C18.0028 9.93952 16.9774 10.9649 15.7125 10.9649H8.63674C7.37181 10.9649 6.34638 9.93952 6.34638 8.67459V5.98433Z" fill="white"/>
<path d="M6.70951 16.3242C7.025 16.0558 7.06318 15.5825 6.79478 15.267C6.52638 14.9515 6.05304 14.9133 5.73755 15.1817L4.37362 16.3419L4.00634 16.6631C3.73615 16.8994 3.67122 17.2939 3.85145 17.6043L4.09699 18.0273L5.31295 20.0602L5.55589 20.4797C5.73156 20.783 6.09389 20.9242 6.42846 20.8197L6.90214 20.6719L8.30912 20.2015C8.63548 20.4297 8.98504 20.6346 9.35862 20.8068L9.63915 22.1693L9.73281 22.6449C9.80205 22.9965 10.1103 23.25 10.4687 23.25H13.8795C14.2372 23.25 14.5451 22.9974 14.615 22.6465L14.71 22.1698L14.9898 20.8066C15.3633 20.6345 15.7128 20.4297 16.0391 20.2015L17.4318 20.6673L17.9197 20.8197C18.2538 20.924 18.6156 20.7834 18.7916 20.4809L19.0361 20.0607L20.2464 18.0354L20.4971 17.6056C20.6784 17.2947 20.6134 16.8989 20.3421 16.6624L19.9814 16.3479L18.6106 15.1817C18.2951 14.9133 17.8218 14.9515 17.5534 15.267C17.285 15.5825 17.3232 16.0558 17.6387 16.3242L18.8869 17.3861L17.7982 19.208L16.1445 18.6551C15.9055 18.5752 15.6424 18.6207 15.444 18.7761C15.0218 19.1071 14.5636 19.3789 14.0669 19.5686C13.8275 19.66 13.6513 19.8674 13.5998 20.1184L13.2649 21.75H11.0843L10.7483 20.118C10.6966 19.8671 10.5205 19.66 10.2813 19.5686C9.78457 19.3789 9.32642 19.1071 8.90412 18.7761C8.70579 18.6207 8.44265 18.5752 8.20366 18.6551L6.55089 19.2077L5.46131 17.3861L6.70951 16.3242Z" fill="white"/>
<path d="M14.4885 15.1519C14.8709 15.311 15.0519 15.75 14.8928 16.1324C14.4505 17.1954 13.4008 17.9455 12.1747 17.9455C10.9528 17.9455 9.90603 17.2004 9.46117 16.1433C9.30051 15.7615 9.47977 15.3217 9.86155 15.1611C10.2433 15.0004 10.6831 15.1797 10.8437 15.5615C11.0628 16.082 11.5775 16.4455 12.1747 16.4455C12.7739 16.4455 13.2902 16.0795 13.5079 15.5562C13.667 15.1738 14.106 14.9927 14.4885 15.1519Z" fill="white"/>
</svg>
