<svg width="41" height="10" viewBox="0 0 41 10" fill="none" xmlns="http://www.w3.org/2000/svg">
<path d="M13.2751 5.114C12.7964 4.63401 12.1468 4.3636 11.4689 4.36212C10.7911 4.36063 10.1403 4.62821 9.65953 5.1061C9.98131 4.79063 10.4144 4.61464 10.865 4.61625C11.3156 4.61785 11.7474 4.79692 12.0669 5.11468C12.3865 5.43243 12.568 5.86329 12.5722 6.31393C12.5763 6.76457 12.4028 7.19871 12.0893 7.52234L12.0869 7.52471L12.0754 7.53657L12.0569 7.55474C11.5772 8.03626 10.926 8.30749 10.2465 8.30879C9.56689 8.31009 8.91464 8.04134 8.4332 7.56166C7.95176 7.08198 7.68056 6.43068 7.67926 5.75101C7.67796 5.07135 7.94668 4.41901 8.42629 3.9375C7.78623 4.57686 7.42634 5.44433 7.42578 6.34907C7.42523 7.25382 7.78405 8.12173 8.42332 8.76188C9.06259 9.40202 9.92994 9.76196 10.8346 9.76252C11.7392 9.76308 12.607 9.4042 13.247 8.76484C13.2514 8.76089 13.2557 8.75694 13.2597 8.75259L13.2755 8.73718L13.2806 8.73164C13.2877 8.72493 13.2944 8.71781 13.3012 8.7107L13.3103 8.70161C13.7751 8.21802 14.0318 7.5714 14.0252 6.90062C14.0186 6.22984 13.7493 5.58839 13.2751 5.114Z" fill="url(#paint0_linear_3657_12786)"/>
<path d="M12.4082 3.3039C11.7709 2.97695 11.0469 2.85887 10.3387 2.9664C9.63061 3.07393 8.97426 3.40161 8.46271 3.90301L8.45125 3.91448L8.43939 3.92633L8.41647 3.94925C7.93802 4.43197 7.67089 5.08501 7.67385 5.7647C7.67682 6.4444 7.94963 7.09508 8.43228 7.57361C8.91493 8.05213 9.56788 8.3193 10.2475 8.31633C10.9271 8.31337 11.5777 8.04052 12.0561 7.5578C11.7339 7.87725 11.2981 8.05582 10.8444 8.05434C10.3907 8.05286 9.95606 7.87144 9.63591 7.54988C9.31576 7.22833 9.13621 6.7929 9.13665 6.33911C9.13709 5.88533 9.31748 5.45024 9.63826 5.12931L9.64893 5.11904C10.1305 4.65331 10.7753 4.39476 11.4452 4.39877C12.1151 4.40277 12.7568 4.66902 13.2328 5.14047C13.7087 5.61192 13.9812 6.25107 13.9917 6.92098C14.0022 7.59089 13.7499 8.23827 13.289 8.72442C13.6623 8.34231 13.9407 7.8779 14.1017 7.36855C14.2628 6.8592 14.3021 6.31914 14.2164 5.79184C14.1308 5.26454 13.9225 4.76471 13.6084 4.33259C13.2944 3.90047 12.8833 3.54812 12.4082 3.3039Z" fill="#17A674"/>
<path d="M12.4082 3.3039C11.7709 2.97695 11.0469 2.85887 10.3387 2.9664C9.63061 3.07393 8.97426 3.40161 8.46271 3.90301L8.45125 3.91448L8.43939 3.92633L8.41647 3.94925C7.93802 4.43197 7.67089 5.08501 7.67385 5.7647C7.67682 6.4444 7.94963 7.09508 8.43228 7.57361C8.91493 8.05213 9.56788 8.3193 10.2475 8.31633C10.9271 8.31337 11.5777 8.04052 12.0561 7.5578C11.7339 7.87725 11.2981 8.05582 10.8444 8.05434C10.3907 8.05286 9.95606 7.87144 9.63591 7.54988C9.31576 7.22833 9.13621 6.7929 9.13665 6.33911C9.13709 5.88533 9.31748 5.45024 9.63826 5.12931L9.64893 5.11904C10.1305 4.65331 10.7753 4.39476 11.4452 4.39877C12.1151 4.40277 12.7568 4.66902 13.2328 5.14047C13.7087 5.61192 13.9812 6.25107 13.9917 6.92098C14.0022 7.59089 13.7499 8.23827 13.289 8.72442C13.6623 8.34231 13.9407 7.8779 14.1017 7.36855C14.2628 6.8592 14.3021 6.31914 14.2164 5.79184C14.1308 5.26454 13.9225 4.76471 13.6084 4.33259C13.2944 3.90047 12.8833 3.54812 12.4082 3.3039Z" fill="url(#paint1_linear_3657_12786)"/>
<path d="M12.4082 3.3039C11.7709 2.97695 11.0469 2.85887 10.3387 2.9664C9.63061 3.07393 8.97426 3.40161 8.46271 3.90301L8.45125 3.91448L8.43939 3.92633L8.41647 3.94925C7.93802 4.43197 7.67089 5.08501 7.67385 5.7647C7.67682 6.4444 7.94963 7.09508 8.43228 7.57361C8.91493 8.05213 9.56788 8.3193 10.2475 8.31633C10.9271 8.31337 11.5777 8.04052 12.0561 7.5578C11.7339 7.87725 11.2981 8.05582 10.8444 8.05434C10.3907 8.05286 9.95606 7.87144 9.63591 7.54988C9.31576 7.22833 9.13621 6.7929 9.13665 6.33911C9.13709 5.88533 9.31748 5.45024 9.63826 5.12931L9.64893 5.11904C10.1305 4.65331 10.7753 4.39476 11.4452 4.39877C12.1151 4.40277 12.7568 4.66902 13.2328 5.14047C13.7087 5.61192 13.9812 6.25107 13.9917 6.92098C14.0022 7.59089 13.7499 8.23827 13.289 8.72442C13.6623 8.34231 13.9407 7.8779 14.1017 7.36855C14.2628 6.8592 14.3021 6.31914 14.2164 5.79184C14.1308 5.26454 13.9225 4.76471 13.6084 4.33259C13.2944 3.90047 12.8833 3.54812 12.4082 3.3039Z" fill="url(#paint2_linear_3657_12786)"/>
<path d="M12.4082 3.3039C11.7709 2.97695 11.0469 2.85887 10.3387 2.9664C9.63061 3.07393 8.97426 3.40161 8.46271 3.90301L8.45125 3.91448L8.43939 3.92633L8.41647 3.94925C7.93802 4.43197 7.67089 5.08501 7.67385 5.7647C7.67682 6.4444 7.94963 7.09508 8.43228 7.57361C8.91493 8.05213 9.56788 8.3193 10.2475 8.31633C10.9271 8.31337 11.5777 8.04052 12.0561 7.5578C11.7339 7.87725 11.2981 8.05582 10.8444 8.05434C10.3907 8.05286 9.95606 7.87144 9.63591 7.54988C9.31576 7.22833 9.13621 6.7929 9.13665 6.33911C9.13709 5.88533 9.31748 5.45024 9.63826 5.12931L9.64893 5.11904C10.1305 4.65331 10.7753 4.39476 11.4452 4.39877C12.1151 4.40277 12.7568 4.66902 13.2328 5.14047C13.7087 5.61192 13.9812 6.25107 13.9917 6.92098C14.0022 7.59089 13.7499 8.23827 13.289 8.72442C13.6623 8.34231 13.9407 7.8779 14.1017 7.36855C14.2628 6.8592 14.3021 6.31914 14.2164 5.79184C14.1308 5.26454 13.9225 4.76471 13.6084 4.33259C13.2944 3.90047 12.8833 3.54812 12.4082 3.3039Z" fill="url(#paint3_linear_3657_12786)"/>
<path d="M12.4082 3.3039C11.7709 2.97695 11.0469 2.85887 10.3387 2.9664C9.63061 3.07393 8.97426 3.40161 8.46271 3.90301L8.45125 3.91448L8.43939 3.92633L8.41647 3.94925C7.93802 4.43197 7.67089 5.08501 7.67385 5.7647C7.67682 6.4444 7.94963 7.09508 8.43228 7.57361C8.91493 8.05213 9.56788 8.3193 10.2475 8.31633C10.9271 8.31337 11.5777 8.04052 12.0561 7.5578C11.7339 7.87725 11.2981 8.05582 10.8444 8.05434C10.3907 8.05286 9.95606 7.87144 9.63591 7.54988C9.31576 7.22833 9.13621 6.7929 9.13665 6.33911C9.13709 5.88533 9.31748 5.45024 9.63826 5.12931L9.64893 5.11904C10.1305 4.65331 10.7753 4.39476 11.4452 4.39877C12.1151 4.40277 12.7568 4.66902 13.2328 5.14047C13.7087 5.61192 13.9812 6.25107 13.9917 6.92098C14.0022 7.59089 13.7499 8.23827 13.289 8.72442C13.6623 8.34231 13.9407 7.8779 14.1017 7.36855C14.2628 6.8592 14.3021 6.31914 14.2164 5.79184C14.1308 5.26454 13.9225 4.76471 13.6084 4.33259C13.2944 3.90047 12.8833 3.54812 12.4082 3.3039Z" fill="url(#paint4_linear_3657_12786)"/>
<path d="M12.4082 3.3039C11.7709 2.97695 11.0469 2.85887 10.3387 2.9664C9.63061 3.07393 8.97426 3.40161 8.46271 3.90301L8.45125 3.91448L8.43939 3.92633L8.41647 3.94925C7.93802 4.43197 7.67089 5.08501 7.67385 5.7647C7.67682 6.4444 7.94963 7.09508 8.43228 7.57361C8.91493 8.05213 9.56788 8.3193 10.2475 8.31633C10.9271 8.31337 11.5777 8.04052 12.0561 7.5578C11.7339 7.87725 11.2981 8.05582 10.8444 8.05434C10.3907 8.05286 9.95606 7.87144 9.63591 7.54988C9.31576 7.22833 9.13621 6.7929 9.13665 6.33911C9.13709 5.88533 9.31748 5.45024 9.63826 5.12931L9.64893 5.11904C10.1305 4.65331 10.7753 4.39476 11.4452 4.39877C12.1151 4.40277 12.7568 4.66902 13.2328 5.14047C13.7087 5.61192 13.9812 6.25107 13.9917 6.92098C14.0022 7.59089 13.7499 8.23827 13.289 8.72442C13.6623 8.34231 13.9407 7.8779 14.1017 7.36855C14.2628 6.8592 14.3021 6.31914 14.2164 5.79184C14.1308 5.26454 13.9225 4.76471 13.6084 4.33259C13.2944 3.90047 12.8833 3.54812 12.4082 3.3039Z" fill="url(#paint5_linear_3657_12786)"/>
<path d="M12.4082 3.3039C11.7709 2.97695 11.0469 2.85887 10.3387 2.9664C9.63061 3.07393 8.97426 3.40161 8.46271 3.90301L8.45125 3.91448L8.43939 3.92633L8.41647 3.94925C7.93802 4.43197 7.67089 5.08501 7.67385 5.7647C7.67682 6.4444 7.94963 7.09508 8.43228 7.57361C8.91493 8.05213 9.56788 8.3193 10.2475 8.31633C10.9271 8.31337 11.5777 8.04052 12.0561 7.5578C11.7339 7.87725 11.2981 8.05582 10.8444 8.05434C10.3907 8.05286 9.95606 7.87144 9.63591 7.54988C9.31576 7.22833 9.13621 6.7929 9.13665 6.33911C9.13709 5.88533 9.31748 5.45024 9.63826 5.12931L9.64893 5.11904C10.1305 4.65331 10.7753 4.39476 11.4452 4.39877C12.1151 4.40277 12.7568 4.66902 13.2328 5.14047C13.7087 5.61192 13.9812 6.25107 13.9917 6.92098C14.0022 7.59089 13.7499 8.23827 13.289 8.72442C13.6623 8.34231 13.9407 7.8779 14.1017 7.36855C14.2628 6.8592 14.3021 6.31914 14.2164 5.79184C14.1308 5.26454 13.9225 4.76471 13.6084 4.33259C13.2944 3.90047 12.8833 3.54812 12.4082 3.3039Z" fill="url(#paint6_linear_3657_12786)"/>
<path d="M34.372 4.07281V5.68962C34.0482 6.12234 33.6181 6.27026 33.1877 6.27026C32.4217 6.27026 31.8877 5.62511 31.8877 4.88712C31.8877 4.13733 32.4217 3.47998 33.1877 3.47998C33.6181 3.47998 34.0482 3.63025 34.372 4.07281Z" fill="#111827"/>
<path d="M38.9445 0.0302735H30.1164C29.9121 0.0302218 29.7098 0.0707013 29.521 0.1494C29.3323 0.228099 29.1608 0.343475 29.0163 0.488939C28.8718 0.634404 28.7572 0.807106 28.679 0.997183C28.6008 1.18726 28.5605 1.39099 28.5605 1.59673V6.60845C29.7285 6.61317 30.641 7.51048 30.641 8.66074C30.6429 9.03919 30.5407 9.41077 30.3457 9.73429H38.9445C39.357 9.73398 39.7524 9.56884 40.0441 9.27514C40.3357 8.98144 40.4997 8.58319 40.5 8.16783V1.59831C40.5003 1.39245 40.4602 1.18856 40.3821 0.998303C40.3041 0.808047 40.1895 0.635155 40.0451 0.489519C39.9006 0.343883 39.729 0.22836 39.5402 0.149558C39.3514 0.070756 39.1489 0.0302216 38.9445 0.0302735ZM35.8309 7.51796H34.3723V7.11553C33.9848 7.37005 33.5129 7.51796 32.9469 7.51796C31.5613 7.51796 30.4387 6.3559 30.4387 4.887C30.4387 3.39686 31.5613 2.24424 32.9469 2.24424C33.5117 2.24424 33.9848 2.39216 34.3723 2.64668V2.24424H35.8309V7.51796ZM38.623 7.51796H37.1644V2.24424H38.625L38.623 7.51796Z" fill="#111827"/>
<path d="M4.87813 5.75355L7.49766 2.94439H5.0625L2.45742 5.76771V0.027832H0.5V9.73657H2.45742V8.33179L3.54258 7.18429L5.32969 9.73657H7.79297L4.87813 5.75355Z" fill="#111827"/>
<path d="M16.8523 3.80636V2.94092H14.9253V9.73664H16.8523V5.74654C17.4077 5.13246 18.1413 4.82523 19.1808 4.78471V2.9421C18.1972 2.9421 17.448 3.24894 16.8523 3.80636Z" fill="#111827"/>
<path d="M25.9139 6.17715C25.9139 4.1823 24.5498 2.87744 22.7178 2.87744C20.6963 2.87744 19.3193 4.31802 19.3193 6.31051C19.3193 8.23809 20.7096 9.73296 22.7686 9.73296C24.2815 9.73296 25.485 8.88285 25.8322 7.64251H23.8951C23.6938 7.9664 23.3321 8.12834 22.81 8.12834C21.7943 8.12834 21.2994 7.53551 21.1525 6.781H25.8737C25.9028 6.5811 25.9163 6.37919 25.9139 6.17715ZM21.1643 5.67716C21.3389 4.95137 21.833 4.42502 22.7291 4.42502C23.4787 4.42502 23.9608 4.87033 24.067 5.67716H21.1643Z" fill="#111827"/>
<path d="M28.5544 7.59375C27.954 7.59375 27.4575 8.05322 27.4575 8.65825C27.4575 9.27704 27.954 9.73651 28.5544 9.73651C29.1692 9.73651 29.6657 9.27704 29.6657 8.65825C29.6657 8.05283 29.1692 7.59375 28.5544 7.59375Z" fill="#111827"/>
<path d="M9.63184 5.13301L9.64009 5.125C9.63791 5.1269 9.63586 5.12896 9.63398 5.13116L9.63184 5.13301Z" fill="url(#paint7_linear_3657_12786)"/>
<path d="M13.2143 8.73869L13.2182 8.73438L13.2051 8.74762L13.2143 8.73869Z" fill="url(#paint8_linear_3657_12786)"/>
<defs>
<linearGradient id="paint0_linear_3657_12786" x1="8.09462" y1="8.41692" x2="13.7939" y2="4.64269" gradientUnits="userSpaceOnUse">
<stop stop-color="#8C8EFF"/>
<stop offset="0.549246" stop-color="#4B4EFC"/>
<stop offset="1" stop-color="#3D40F2"/>
</linearGradient>
<linearGradient id="paint1_linear_3657_12786" x1="11.9113" y1="5.38627" x2="14.4807" y2="3.75227" gradientUnits="userSpaceOnUse">
<stop stop-color="#BFC527" stop-opacity="0"/>
<stop offset="1" stop-color="#BFC527"/>
</linearGradient>
<linearGradient id="paint2_linear_3657_12786" x1="11.2253" y1="4.46331" x2="10.6141" y2="6.64601" gradientUnits="userSpaceOnUse">
<stop stop-color="#FEC412"/>
<stop offset="1" stop-color="#FEC412" stop-opacity="0"/>
</linearGradient>
<linearGradient id="paint3_linear_3657_12786" x1="9.19214" y1="6.15957" x2="12.6347" y2="6.25936" gradientUnits="userSpaceOnUse">
<stop stop-color="#E05063"/>
<stop offset="1" stop-color="#E05063" stop-opacity="0"/>
</linearGradient>
<linearGradient id="paint4_linear_3657_12786" x1="9.29193" y1="7.02017" x2="11.1004" y2="4.65031" gradientUnits="userSpaceOnUse">
<stop stop-color="#AF348D"/>
<stop offset="1" stop-color="#AF348D" stop-opacity="0"/>
</linearGradient>
<linearGradient id="paint5_linear_3657_12786" x1="11.2627" y1="7.99302" x2="10.3023" y2="4.72521" gradientUnits="userSpaceOnUse">
<stop stop-color="#3596D5"/>
<stop offset="1" stop-color="#3596D5" stop-opacity="0"/>
</linearGradient>
<linearGradient id="paint6_linear_3657_12786" x1="13.5827" y1="8.29236" x2="11.6744" y2="6.75816" gradientUnits="userSpaceOnUse">
<stop stop-color="#17A674"/>
<stop offset="1" stop-color="#17A674" stop-opacity="0"/>
</linearGradient>
<linearGradient id="paint7_linear_3657_12786" x1="10.8559" y1="6.85031" x2="11.5368" y2="6.14815" gradientUnits="userSpaceOnUse">
<stop stop-color="#009DAB" stop-opacity="0"/>
<stop offset="1" stop-color="#009DAB"/>
</linearGradient>
<linearGradient id="paint8_linear_3657_12786" x1="15.0438" y1="6.83211" x2="11.8605" y2="10.1024" gradientUnits="userSpaceOnUse">
<stop offset="0.24" stop-color="#009DAB" stop-opacity="0"/>
<stop offset="1" stop-color="#009DAB"/>
</linearGradient>
</defs>
</svg>
