<svg width="10" height="16" viewBox="0 0 10 16" fill="none" xmlns="http://www.w3.org/2000/svg">
<path d="M5 0.5C7.77326 0.5 10 2.79988 10 5.61355V11.341C10 11.7049 9.69244 11.9999 9.31304 11.9999C8.95472 11.9999 8.66047 11.7368 8.62888 11.401L8.62607 11.341V5.61355C8.62607 3.5067 6.99078 1.81769 5 1.81769C3.00922 1.81769 1.37393 3.5067 1.37393 5.61355V11.9774C1.37393 13.1951 2.40322 14.1823 3.67291 14.1823C4.94261 14.1823 5.9719 13.1951 5.9719 11.9774V5.61355C5.9719 5.09876 5.53676 4.68143 5 4.68143C4.4856 4.68143 4.06454 5.0647 4.03035 5.54973L4.0281 5.61355V11.341C4.0281 11.7049 3.72054 11.9999 3.34114 11.9999C2.98282 11.9999 2.68857 11.7368 2.65698 11.401L2.65418 11.341V5.61355C2.65418 4.37101 3.70444 3.36374 5 3.36374C6.29556 3.36374 7.34582 4.37101 7.34582 5.61355L7.34582 11.9774C7.34526 13.9224 5.70106 15.5 3.67291 15.5C1.64442 15.5 0 13.9229 0 11.9774V5.61355C0 2.79988 2.22674 0.5 5 0.5Z" fill="#697586"/>
</svg>
