<svg width="12" height="12" viewBox="0 0 12 12" fill="none" xmlns="http://www.w3.org/2000/svg">
<path d="M6.53027 6.00007L9.64017 2.89017C9.78661 2.74372 9.78661 2.50628 9.64017 2.35984C9.49372 2.21339 9.25628 2.21339 9.10984 2.35984L5.99993 5.46975L2.89017 2.36011C2.74372 2.21367 2.50628 2.21367 2.35984 2.36012C2.21339 2.50657 2.2134 2.74401 2.35985 2.89045L5.4696 6.00008L2.35983 9.10985C2.21339 9.25629 2.21339 9.49373 2.35984 9.64018C2.50628 9.78662 2.74372 9.78662 2.89017 9.64018L5.99994 6.5304L9.10985 9.64018C9.2563 9.78662 9.49373 9.78662 9.64018 9.64017C9.78662 9.49372 9.78662 9.25628 9.64017 9.10984L6.53027 6.00007Z" fill="#697586"/>
</svg>
