<svg width="16" height="16" viewBox="0 0 16 16" fill="none" xmlns="http://www.w3.org/2000/svg">
<path d="M3.96154 6.29627C3.96154 5.65625 4.47987 5.14243 5.11538 5.14243C5.7509 5.14243 6.26923 5.65625 6.26923 6.29627C6.26923 6.93179 5.7509 7.45012 5.11538 7.45012C4.47987 7.45012 3.96154 6.93179 3.96154 6.29627Z" fill="#697586"/>
<path d="M9.73077 6.29627C9.73077 5.65625 10.2491 5.14243 10.8846 5.14243C11.5201 5.14243 12.0385 5.65625 12.0385 6.29627C12.0385 6.93179 11.5201 7.45012 10.8846 7.45012C10.2491 7.45012 9.73077 6.93179 9.73077 6.29627Z" fill="#697586"/>
<path d="M4.52563 10.561C4.41013 10.4503 4.34275 10.2963 4.33794 10.1375C4.32831 9.88244 4.4775 9.64663 4.71331 9.55038C4.94912 9.44932 5.21862 9.50226 5.39669 9.68995C6.06562 10.3541 6.98481 10.7679 8.00505 10.7679C9.0253 10.7679 9.94449 10.3541 10.6134 9.68995C10.854 9.44932 11.2439 9.44932 11.4845 9.68995C11.7251 9.93057 11.7251 10.3204 11.4845 10.561C10.5942 11.4465 9.36218 11.9999 8.00505 11.9999C6.64793 11.9999 5.41594 11.4465 4.52563 10.561Z" fill="#697586"/>
<path fill-rule="evenodd" clip-rule="evenodd" d="M0.5 8C0.5 3.86689 3.86689 0.5 8 0.5C12.1331 0.5 15.5 3.86689 15.5 8C15.5 12.1331 12.1331 15.5 8 15.5C3.86689 15.5 0.5 12.1331 0.5 8ZM14.3462 8C14.3462 4.48888 11.5111 1.65385 8 1.65385C4.48888 1.65385 1.65385 4.48888 1.65385 8C1.65385 11.5111 4.48888 14.3462 8 14.3462C11.5111 14.3462 14.3462 11.5111 14.3462 8Z" fill="#697586"/>
</svg>
