<svg width="18" height="14" viewBox="0 0 18 14" fill="none" xmlns="http://www.w3.org/2000/svg">
<path d="M1.5 0.125C1.15482 0.125 0.875 0.404822 0.875 0.75C0.875 1.09518 1.15482 1.375 1.5 1.375H16.5C16.8452 1.375 17.125 1.09518 17.125 0.75C17.125 0.404822 16.8452 0.125 16.5 0.125H1.5ZM1.5 6.375C1.15482 6.375 0.875 6.65482 0.875 7C0.875 7.34518 1.15482 7.625 1.5 7.625H16.5C16.8452 7.625 17.125 7.34518 17.125 7C17.125 6.65482 16.8452 6.375 16.5 6.375H1.5ZM1.5 12.625C1.15482 12.625 0.875 12.9048 0.875 13.25C0.875 13.5952 1.15482 13.875 1.5 13.875H16.5C16.8452 13.875 17.125 13.5952 17.125 13.25C17.125 12.9048 16.8452 12.625 16.5 12.625H1.5Z" fill="#697586"/>
</svg>
