<svg width="20" height="20" viewBox="0 0 20 20" fill="none" xmlns="http://www.w3.org/2000/svg">
<path d="M7.11956 8.09122C7.11956 5.60059 9.59056 4.46624 11.41 5.36657C12.5593 5.9353 13.26 7.29813 13.0294 8.41383C12.8581 9.24281 12.4996 9.7277 11.7763 10.3191L11.4973 10.5404C10.791 11.0945 10.5927 11.3817 10.5927 12.0469C10.5927 12.3693 10.3313 12.6307 10.0089 12.6307C9.68653 12.6307 9.42516 12.3693 9.42516 12.0469C9.42516 10.9998 9.77624 10.4363 10.6297 9.73935L10.905 9.52118C11.5325 9.02779 11.772 8.72961 11.8861 8.17751C12.0071 7.59214 11.5743 6.75055 10.8922 6.41299C9.78568 5.86545 8.28709 6.5534 8.28709 8.09122C8.28709 8.41362 8.02573 8.67498 7.70332 8.67498C7.38092 8.67498 7.11956 8.41362 7.11956 8.09122Z" fill="#697586"/>
<path d="M10.7681 14.2251C10.7681 14.618 10.4496 14.9365 10.0566 14.9365C9.66369 14.9365 9.34516 14.618 9.34516 14.2251C9.34516 13.8321 9.66369 13.5136 10.0566 13.5136C10.4496 13.5136 10.7681 13.8321 10.7681 14.2251Z" fill="#697586"/>
<path fill-rule="evenodd" clip-rule="evenodd" d="M10.0002 1.10938C5.09102 1.10938 1.11133 5.08907 1.11133 9.99826C1.11133 14.9075 5.09102 18.8872 10.0002 18.8872C14.9094 18.8872 18.8891 14.9075 18.8891 9.99826C18.8891 5.08907 14.9094 1.10938 10.0002 1.10938ZM10.0002 2.42625C14.1821 2.42625 17.5722 5.81635 17.5722 9.99826C17.5722 14.1802 14.1821 17.5703 10.0002 17.5703C5.81831 17.5703 2.4282 14.1802 2.4282 9.99826C2.4282 5.81635 5.81831 2.42625 10.0002 2.42625Z" fill="#697586"/>
</svg>
