<svg width="16" height="24" viewBox="0 0 16 24" fill="none" xmlns="http://www.w3.org/2000/svg">
<path d="M11.7219 23.647L1.66359 17.0987C1.66359 17.0987 0.402074 16.3735 0.113206 15.0223C-0.292353 13.1254 1.04491 11.499 1.04491 11.499L14.0992 20.0007C15.1062 20.657 15.3812 21.9997 14.7339 23.0124C14.0689 24.0528 12.7024 24.2824 11.7219 23.647Z" fill="#38D200"/>
<path d="M2.19456 10.0959C2.19456 10.0959 0.653809 9.16567 0.653809 7.01382C0.653809 4.86933 2.19395 3.95052 2.19395 3.95052L7.69287 0.351649C8.17684 0.0370565 8.76596 -0.0723953 9.33065 0.0473729C9.8953 0.167141 10.3893 0.506319 10.7039 0.99029C11.0185 1.47426 11.1279 2.06338 11.0082 2.62806C10.8884 3.19272 10.5492 3.68669 10.0652 4.00128L5.43066 7.01915L13.3273 12.162C13.3273 12.162 14.7487 12.9764 15.0288 14.3512C15.4196 16.269 14.0995 17.8491 14.0995 17.8491L2.19456 10.0959Z" fill="#0473EA"/>
<path d="M12.545 4.87461C12.0287 4.87461 11.6612 5.0384 11.3027 5.27075L8.61816 7.0191L11.3027 8.76745C11.6647 9.00064 12.0444 9.16381 12.545 9.16381C12.8284 9.16657 13.1095 9.11316 13.3721 9.00662C13.6348 8.90008 13.8737 8.74255 14.0751 8.54313C14.2764 8.34371 14.4363 8.10637 14.5454 7.84479C14.6545 7.58321 14.7107 7.30263 14.7107 7.01921C14.7107 6.7358 14.6545 6.45521 14.5454 6.19363C14.4363 5.93206 14.2764 5.69471 14.0751 5.49529C13.8737 5.29588 13.6348 5.13834 13.3721 5.0318C13.1095 4.92526 12.8284 4.87185 12.545 4.87461Z" fill="#38D200"/>
<path d="M2.16565 23.9939C2.68196 23.9939 3.04946 23.8301 3.40773 23.5977L6.09228 21.8492L3.40773 20.101C3.04598 19.8679 2.66622 19.7047 2.16565 19.7047C1.88226 19.7019 1.60112 19.7554 1.3385 19.8619C1.07588 19.9684 0.836972 20.126 0.635595 20.3254C0.434216 20.5248 0.274361 20.7622 0.165266 21.0237C0.0561712 21.2853 0 21.5659 0 21.8493C0 22.1326 0.0561712 22.4133 0.165266 22.6749C0.274361 22.9364 0.434216 23.1739 0.635595 23.3732C0.836972 23.5727 1.07588 23.7302 1.3385 23.8367C1.60112 23.9433 1.88226 23.9966 2.16565 23.9939Z" fill="#0473EA"/>
</svg>
