<svg width="61" height="24" viewBox="0 0 61 24" fill="none" xmlns="http://www.w3.org/2000/svg">
<path d="M11.665 23.5311L1.65608 17.015C1.65608 17.015 0.400766 16.2934 0.113318 14.9489C-0.290248 13.0612 1.04044 11.4429 1.04044 11.4429L14.0306 19.9027C15.0327 20.5558 15.3063 21.8919 14.6621 22.8997C14.0004 23.935 12.6406 24.1634 11.665 23.5311Z" fill="white"/>
<path d="M2.18455 10.0463C2.18455 10.0463 0.651367 9.12063 0.651367 6.97935C0.651367 4.8454 2.18394 3.93111 2.18394 3.93111L7.65583 0.349921C8.13742 0.0368744 8.72366 -0.0720395 9.28556 0.0471401C9.84744 0.16632 10.339 0.503831 10.652 0.985424C10.9651 1.46702 11.074 2.05324 10.9548 2.61514C10.8356 3.17703 10.4981 3.66857 10.0165 3.98162L5.40474 6.98465L13.2626 12.1023C13.2626 12.1023 14.677 12.9127 14.9557 14.2806C15.3446 16.1891 14.031 17.7614 14.031 17.7614L2.18455 10.0463Z" fill="white"/>
<path d="M12.4837 4.85069C11.9699 4.85069 11.6043 5.01367 11.2475 5.24488L8.57617 6.98464L11.2475 8.7244C11.6077 8.95643 11.9856 9.1188 12.4837 9.1188C12.7657 9.12155 13.0455 9.0684 13.3068 8.96239C13.5681 8.85637 13.8059 8.69961 14.0063 8.50118C14.2066 8.30274 14.3657 8.06656 14.4743 7.80627C14.5828 7.54597 14.6387 7.26677 14.6387 6.98475C14.6387 6.70272 14.5828 6.42352 14.4743 6.16323C14.3657 5.90293 14.2066 5.66675 14.0063 5.46832C13.8059 5.26988 13.5681 5.11312 13.3068 5.0071C13.0455 4.90109 12.7657 4.84794 12.4837 4.85069Z" fill="white"/>
<path d="M2.15501 23.8767C2.66878 23.8767 3.03447 23.7137 3.39098 23.4824L6.06234 21.7425L3.39098 20.0029C3.03101 19.7709 2.65311 19.6085 2.15501 19.6085C1.87301 19.6058 1.59325 19.6589 1.33192 19.7649C1.07059 19.8709 0.832858 20.0277 0.632472 20.2261C0.432082 20.4246 0.273013 20.6608 0.164454 20.921C0.0558951 21.1813 0 21.4606 0 21.7426C0 22.0245 0.0558951 22.3038 0.164454 22.5641C0.273013 22.8244 0.432082 23.0607 0.632472 23.259C0.832858 23.4575 1.07059 23.6142 1.33192 23.7202C1.59325 23.8263 1.87301 23.8793 2.15501 23.8767Z" fill="white"/>
<path d="M23.5551 17.8078C24.12 17.8078 24.6467 17.6546 25.0582 17.3003V18.0949C24.5985 18.4108 24.0528 18.5449 23.4783 18.5449C22.0318 18.5449 21.0273 17.5395 21.0273 16.0937C21.0273 14.6575 22.0612 13.6523 23.4975 13.6523C24.0624 13.6523 24.5889 13.8153 25.0102 14.1311V15.0022C24.6369 14.6003 24.12 14.3896 23.5453 14.3896C22.5399 14.3896 21.8315 15.0886 21.8315 16.0937C21.8315 17.0989 22.5497 17.8078 23.5551 17.8078Z" fill="white"/>
<path d="M26.6956 18.4592H25.9199V12.2427L26.6956 12.722V14.5433C27.0499 13.9975 27.6148 13.6528 28.3328 13.6528C29.5201 13.6528 30.152 14.5239 30.152 15.6825V18.4592H29.367V15.8165C29.367 14.8973 28.9649 14.4092 28.1412 14.4092C27.27 14.4092 26.6949 15.1559 26.6949 16.0942L26.6956 18.4592Z" fill="white"/>
<path d="M34.9678 17.6544C34.5755 18.2097 33.9722 18.5449 33.235 18.5449C31.8563 18.5449 30.8701 17.5204 30.8701 16.1224C30.8701 14.6964 31.8563 13.6523 33.235 13.6523C33.9722 13.6523 34.5755 13.997 34.9678 14.5619V13.7385H35.753V18.4587H34.9678V17.6544ZM31.6743 16.1129C31.6743 17.0895 32.3542 17.8076 33.3116 17.8076C34.2786 17.8076 34.9678 17.0895 34.9678 16.1129C34.9678 15.1171 34.2786 14.3896 33.3116 14.3896C32.3542 14.3902 31.6743 15.1171 31.6743 16.1129Z" fill="white"/>
<path d="M37.7346 18.4592H36.959V13.739H37.7346V14.7442C38.1079 14.0452 38.7112 13.6528 39.458 13.6528V14.5433C38.5196 14.4092 37.7346 15.0412 37.7346 16.2091V18.4592Z" fill="white"/>
<path d="M47.405 16.4007H43.6804C43.7954 17.2529 44.4656 17.8178 45.4038 17.8178C46.0071 17.8178 46.5912 17.6454 47.0891 17.2912V18.038C46.5816 18.3827 46.0071 18.5455 45.4038 18.5455C43.9198 18.5455 42.8574 17.588 42.8574 16.1416C42.8574 14.7245 43.7574 13.6523 45.1841 13.6523C46.5436 13.6523 47.4342 14.6575 47.4342 16.0076C47.4344 16.1392 47.4246 16.2706 47.405 16.4007ZM43.69 15.7692H46.6104C46.5338 14.9649 46.0263 14.3715 45.1933 14.3715C44.3315 14.3711 43.8144 14.9743 43.69 15.7688V15.7692Z" fill="white"/>
<path d="M49.0618 18.4592H48.2861V13.739H49.0618V14.7442C49.4351 14.0452 50.0381 13.6528 50.785 13.6528V14.5433C49.847 14.4092 49.0618 15.0412 49.0618 16.2091V18.4592Z" fill="white"/>
<path d="M55.3903 16.4007H51.666C51.7805 17.2529 52.451 17.8178 53.3892 17.8178C53.9924 17.8178 54.5765 17.6454 55.0744 17.2912V18.038C54.5669 18.3827 53.9924 18.5455 53.3892 18.5455C51.9051 18.5455 50.8428 17.588 50.8428 16.1416C50.8428 14.7245 51.7426 13.6523 53.1692 13.6523C54.5287 13.6523 55.4191 14.6575 55.4191 16.0076C55.4196 16.1391 55.4098 16.2706 55.3903 16.4007ZM51.6756 15.7692H54.5955C54.5189 14.9649 54.0114 14.3715 53.1786 14.3715C52.317 14.3711 51.8004 14.9743 51.6756 15.7688V15.7692Z" fill="white"/>
<path d="M60.0461 17.6488C59.6634 18.2137 59.0506 18.5584 58.3133 18.5584C56.9344 18.5584 55.9482 17.5339 55.9482 16.136C55.9482 14.71 56.9344 13.6657 58.3133 13.6657C59.0506 13.6657 59.6634 14.0202 60.0461 14.5945V12.2441L60.8314 12.7237V18.4592H60.0461V17.6488ZM56.7527 16.1266C56.7527 17.1032 57.4323 17.8214 58.3899 17.8214C59.3569 17.8214 60.0461 17.1032 60.0461 16.1266C60.0461 15.1308 59.3569 14.4032 58.3899 14.4032C57.4323 14.403 56.7527 15.1306 56.7527 16.1266Z" fill="white"/>
<path d="M40.8137 16.8902C40.8137 17.5508 41.2158 17.8093 41.7233 17.8093C42.1176 17.8132 42.5029 17.6925 42.8245 17.4646V18.2211C42.4985 18.4604 42.0488 18.5562 41.6563 18.5562C40.651 18.5562 40.0381 18.1062 40.0381 16.8327V12.2417L40.8137 12.721V16.8902Z" fill="white"/>
<path d="M42.0674 13.6775C41.9341 13.5911 41.772 13.5611 41.6167 13.5942C41.4613 13.6273 41.3254 13.7208 41.239 13.854C41.1526 13.9873 41.1227 14.1494 41.1556 14.3048C41.1888 14.4602 41.2822 14.596 41.4155 14.6825L41.4321 14.6928C41.5283 14.7545 41.6404 14.7873 41.7548 14.7873C41.8691 14.7873 41.981 14.7545 42.0775 14.6928L42.8487 14.1982L42.0674 13.6775Z" fill="white"/>
<path d="M22.6457 11.0012C23.2008 11.0012 23.6031 10.7618 23.6031 10.331C23.6031 10.0725 23.4691 9.87137 23.1142 9.72775L21.9938 9.27775C21.4193 9.0288 21.1033 8.70325 21.1033 8.09047C21.1033 7.26703 21.764 6.75 22.7214 6.75C23.2765 6.75 23.7936 6.90319 24.1575 7.18087V7.99573C23.7268 7.61276 23.1999 7.39252 22.7315 7.39252C22.2334 7.39252 21.879 7.62231 21.879 8.00531C21.879 8.29255 22.0132 8.46491 22.3867 8.60852L23.5071 9.05854C24.1102 9.31706 24.3881 9.6809 24.3881 10.1884C24.3881 11.0884 23.6603 11.6437 22.6361 11.6437C22.0134 11.6437 21.4486 11.4714 21.0371 11.165V10.3214C21.5348 10.7906 22.0902 11.0012 22.6457 11.0012Z" fill="white"/>
<path d="M25.8624 9.97677C25.8624 10.6374 26.2643 10.8959 26.772 10.8959C27.1659 10.8995 27.5507 10.7789 27.8721 10.5512V11.3077C27.5462 11.547 27.0963 11.6428 26.7038 11.6428C25.6984 11.6428 25.0859 11.1928 25.0859 9.91932V5.8042L25.8614 5.32422L25.8624 9.97677Z" fill="white"/>
<path d="M32.2102 10.7523C31.8177 11.3076 31.2144 11.6427 30.4772 11.6427C29.0985 11.6427 28.1123 10.6182 28.1123 9.2203C28.1123 7.79426 29.0985 6.75 30.4772 6.75C31.2144 6.75 31.8177 7.09468 32.2102 7.6596V6.83677H32.9954V11.5565H32.2102V10.7523ZM28.9165 9.21072C28.9165 10.1873 29.5964 10.9054 30.5538 10.9054C31.521 10.9054 32.2102 10.1873 32.2102 9.21072C32.2102 8.21494 31.521 7.48726 30.5538 7.48726C29.5964 7.48726 28.9165 8.21494 28.9165 9.21072Z" fill="white"/>
<path d="M34.9773 11.5564H34.2017V6.83665H34.9773V7.64093C35.3316 7.09517 35.8965 6.75049 36.6145 6.75049C37.8019 6.75049 38.4337 7.6218 38.4337 8.78034V11.557H37.6487V8.91459C37.6487 7.99541 37.2466 7.5071 36.4232 7.5071C35.5518 7.5071 34.9766 8.25394 34.9766 9.19227L34.9773 11.5564Z" fill="white"/>
<path d="M43.2502 10.7332C42.8673 11.2981 42.2545 11.6428 41.5172 11.6428C40.1385 11.6428 39.1523 10.6183 39.1523 9.22036C39.1523 7.79432 40.1385 6.75006 41.5172 6.75006C42.2545 6.75006 42.8673 7.10432 43.2502 7.67881V5.80359L44.0355 5.32422V11.5566H43.2502V10.7332ZM39.9566 9.21078C39.9566 10.1874 40.6364 10.9055 41.5938 10.9055C42.561 10.9055 43.2502 10.1874 43.2502 9.21078C43.2502 8.215 42.561 7.48732 41.5938 7.48732C40.6371 7.48732 39.9566 8.215 39.9566 9.21078Z" fill="white"/>
<path d="M57.6123 10.7332C57.2294 11.2981 56.6165 11.6428 55.8793 11.6428C54.5003 11.6428 53.5142 10.6183 53.5142 9.22036C53.5142 7.79432 54.5003 6.75006 55.8793 6.75006C56.6165 6.75006 57.2294 7.10432 57.6123 7.67881V5.80359L58.3973 5.32422V11.5566H57.6123V10.7332ZM54.3186 9.21078C54.3186 10.1874 54.9982 10.9055 55.9558 10.9055C56.9228 10.9055 57.6123 10.1874 57.6123 9.21078C57.6123 8.215 56.9228 7.48732 55.9558 7.48732C54.9989 7.48732 54.3186 8.215 54.3186 9.21078Z" fill="white"/>
<path d="M48.9758 10.7523C48.5833 11.3076 47.98 11.6427 47.2428 11.6427C45.8641 11.6427 44.8779 10.6182 44.8779 9.2203C44.8779 7.79426 45.8641 6.75 47.2428 6.75C47.98 6.75 48.5833 7.09468 48.9758 7.6596V6.83677H49.7611V11.5565H48.9758V10.7523ZM45.6821 9.21072C45.6821 10.1873 46.362 10.9054 47.3194 10.9054C48.2864 10.9054 48.9758 10.1873 48.9758 9.21072C48.9758 8.21494 48.2864 7.48726 47.3194 7.48726C46.3613 7.48726 45.6821 8.21494 45.6821 9.21072Z" fill="white"/>
<path d="M51.7424 11.5564H50.9668V6.83665H51.7424V7.84201C52.1157 7.14304 52.719 6.75049 53.4659 6.75049V7.64093C52.5275 7.5069 51.7424 8.13882 51.7424 9.30695V11.5564Z" fill="white"/>
<path d="M26.9559 7.84243C27.022 7.8856 27.096 7.9153 27.1737 7.92981C27.2511 7.94429 27.331 7.94331 27.408 7.92691C27.4852 7.9105 27.5585 7.87899 27.6235 7.8342C27.6886 7.78941 27.744 7.7322 27.7867 7.66589C27.8295 7.59957 27.859 7.52545 27.8729 7.44778C27.8871 7.37011 27.8856 7.29043 27.8688 7.2133C27.852 7.13619 27.8199 7.06315 27.7747 6.99841C27.7296 6.93368 27.6722 6.8785 27.6057 6.83606L27.5891 6.82568C27.4926 6.76439 27.3805 6.73203 27.2662 6.73243C27.1516 6.73282 27.0399 6.76596 26.9437 6.8279L26.1729 7.32437L26.9559 7.84243Z" fill="white"/>
</svg>
