<svg width="20" height="20" viewBox="0 0 20 20" fill="none" xmlns="http://www.w3.org/2000/svg">
<path d="M9.32692 1.25C2.94321 1.25 2.61719 5.45147 2.59615 8.79057C1.81791 9.09555 1.25 9.84225 1.25 10.6731C1.25 11.7458 2.05454 13.3654 3.26923 13.3654C3.3744 13.3654 3.48483 13.3549 3.59525 13.3444C4.58383 16.41 7.02374 18.75 9.32692 18.75C10.4259 18.75 11.5565 18.2031 12.5503 17.2987C12.1454 17.3618 11.7458 17.4038 11.3462 17.4038H9.32692C7.74414 17.4038 5.53561 15.4425 4.76262 12.524L4.54177 11.7563L3.91076 11.9141C3.52163 12.014 3.32182 12.0192 3.26923 12.0192C3.05364 11.9929 2.59615 11.2252 2.59615 10.6731C2.59615 10.3471 2.93795 10.021 3.3113 10L3.94231 9.95793V9.32692C3.94231 5.14123 4.30514 2.59615 9.32692 2.59615C9.48468 2.59615 11.3724 2.60141 12.6187 2.60667L12.1612 3.53741C12.0928 3.70042 11.8457 4.2473 10.9886 4.95192C10 5.77224 8.28576 6.63462 5.28846 6.63462V7.98077C8.54868 7.98077 10.6152 7.00796 11.851 5.99309C12.5083 5.44621 12.9079 4.90986 13.1603 4.49444C14.5433 5.19907 14.7115 6.59781 14.7115 9.32692V12.645C14.559 14.3382 12.2348 14.7115 11.3462 14.7115H10.6731C10.6731 13.9701 10.0684 13.3654 9.32692 13.3654C8.58549 13.3654 7.98077 13.9701 7.98077 14.7115C7.98077 15.453 8.58549 16.0577 9.32692 16.0577H11.3462C13.2024 16.0577 15.2479 15.2689 15.8736 13.5337H16.7308C17.8403 13.5337 18.75 12.6239 18.75 11.5144V10C18.75 8.89047 17.8403 7.98077 16.7308 7.98077H16.0314C15.963 6.05093 15.6318 4.23678 13.7861 3.29026L14.7852 1.27103L13.7019 1.26578C13.7019 1.26578 9.56355 1.25 9.32692 1.25ZM7.30769 9.32692C6.93434 9.32692 6.63462 9.62665 6.63462 10C6.63462 10.3733 6.93434 10.6731 7.30769 10.6731C7.68104 10.6731 7.98077 10.3733 7.98077 10C7.98077 9.62665 7.68104 9.32692 7.30769 9.32692ZM11.3462 9.32692C10.9728 9.32692 10.6731 9.62665 10.6731 10C10.6731 10.3733 10.9728 10.6731 11.3462 10.6731C11.7195 10.6731 12.0192 10.3733 12.0192 10C12.0192 9.62665 11.7195 9.32692 11.3462 9.32692ZM16.0577 9.32692H16.7308C17.1094 9.32692 17.4038 9.62139 17.4038 10V11.5144C17.4038 11.893 17.1094 12.1875 16.7308 12.1875H16.0577V9.32692Z" fill="#697586"/>
</svg>
