<svg width="12" height="18" viewBox="0 0 12 18" fill="none" xmlns="http://www.w3.org/2000/svg">
<path d="M6 0.875C4.28613 0.875 2.875 2.28613 2.875 4V9C2.875 10.7139 4.28613 12.125 6 12.125C7.71387 12.125 9.125 10.7139 9.125 9V4C9.125 2.28613 7.71387 0.875 6 0.875ZM6 2.125C7.03516 2.125 7.875 2.96484 7.875 4V9C7.875 10.0352 7.03516 10.875 6 10.875C4.96484 10.875 4.125 10.0352 4.125 9V4C4.125 2.96484 4.96484 2.125 6 2.125ZM1 8.375C0.654822 8.375 0.375 8.65482 0.375 9C0.375 11.876 2.57715 14.2441 5.375 14.5615V15.875H3.5C3.15482 15.875 2.875 16.1548 2.875 16.5C2.875 16.8452 3.15482 17.125 3.5 17.125H8.5C8.84518 17.125 9.125 16.8452 9.125 16.5C9.125 16.1548 8.84518 15.875 8.5 15.875H6.625V14.5615C9.42285 14.2441 11.625 11.876 11.625 9C11.625 8.65482 11.3452 8.375 11 8.375C10.6548 8.375 10.375 8.65482 10.375 9C10.375 11.4072 8.40723 13.375 6 13.375C3.59277 13.375 1.625 11.4072 1.625 9C1.625 8.65482 1.34518 8.375 1 8.375Z" fill="#697586"/>
</svg>
