<svg width="22" height="22" viewBox="0 0 22 22" fill="none" xmlns="http://www.w3.org/2000/svg">
<path fill-rule="evenodd" clip-rule="evenodd" d="M16.3507 1.83334H5.6467C5.1635 1.83333 4.74661 1.83332 4.40326 1.86137C4.04086 1.89098 3.68041 1.95635 3.33356 2.13308C2.81611 2.39673 2.39542 2.81743 2.13177 3.33487C1.95504 3.68172 1.88966 4.04217 1.86006 4.40457C1.832 4.74792 1.83202 5.16477 1.83203 5.64798V16.352C1.83202 16.8352 1.832 17.2521 1.86006 17.5955C1.88966 17.9579 1.95504 18.3183 2.13177 18.6652C2.39542 19.1826 2.81611 19.6033 3.33356 19.8669C3.68041 20.0437 4.04086 20.109 4.40326 20.1387C4.74661 20.1667 5.16347 20.1667 5.64668 20.1667H16.3507C16.8339 20.1667 17.2508 20.1667 17.5941 20.1387C17.9565 20.109 18.317 20.0437 18.6638 19.8669C19.1813 19.6033 19.602 19.1826 19.8656 18.6652C20.0424 18.3183 20.1077 17.9579 20.1373 17.5955C20.1654 17.2521 20.1654 16.8352 20.1654 16.352V5.64799C20.1654 5.16478 20.1654 4.74792 20.1373 4.40457C20.1077 4.04217 20.0424 3.68172 19.8656 3.33487C19.602 2.81743 19.1813 2.39673 18.6638 2.13308C18.317 1.95635 17.9565 1.89098 17.5941 1.86137C17.2508 1.83332 16.8339 1.83333 16.3507 1.83334Z" fill="#12B76A"/>
<path d="M8.39085 10.6914H7.30207C7.28218 10.5505 7.24158 10.4254 7.18026 10.3161C7.11895 10.205 7.04023 10.1106 6.94411 10.0327C6.848 9.95478 6.73696 9.89512 6.61102 9.85369C6.48673 9.81226 6.35167 9.79155 6.20583 9.79155C5.94234 9.79155 5.71282 9.85701 5.51727 9.98793C5.32172 10.1172 5.17008 10.3061 5.06237 10.5547C4.95465 10.8016 4.90079 11.1016 4.90079 11.4545C4.90079 11.8175 4.95465 12.1224 5.06237 12.3693C5.17174 12.6162 5.3242 12.8027 5.51975 12.9286C5.7153 13.0546 5.94151 13.1175 6.19838 13.1175C6.34255 13.1175 6.47596 13.0985 6.59859 13.0604C6.72288 13.0223 6.83308 12.9667 6.9292 12.8938C7.02532 12.8192 7.10486 12.7289 7.16784 12.6229C7.23247 12.5168 7.27721 12.3958 7.30207 12.2599L8.39085 12.2649C8.36267 12.4986 8.29224 12.724 8.17955 12.9411C8.06852 13.1565 7.91855 13.3496 7.72963 13.5202C7.54236 13.6893 7.31864 13.8235 7.05846 13.9229C6.79994 14.0207 6.50744 14.0696 6.18097 14.0696C5.7269 14.0696 5.32089 13.9669 4.96294 13.7614C4.60664 13.5559 4.32491 13.2584 4.11776 12.869C3.91227 12.4795 3.80953 12.008 3.80953 11.4545C3.80953 10.8994 3.91393 10.4271 4.12274 10.0376C4.33154 9.6482 4.61492 9.35156 4.97288 9.14773C5.33083 8.94223 5.73353 8.83949 6.18097 8.83949C6.47596 8.83949 6.74939 8.88092 7.00129 8.96378C7.25484 9.04664 7.47939 9.16761 7.67494 9.3267C7.87049 9.48414 8.02958 9.6772 8.15221 9.90589C8.2765 10.1346 8.35605 10.3964 8.39085 10.6914ZM11.9244 10.3732C11.9045 10.1727 11.8192 10.0169 11.6684 9.90589C11.5176 9.79486 11.3129 9.73935 11.0544 9.73935C10.8787 9.73935 10.7304 9.7642 10.6094 9.81392C10.4884 9.86198 10.3956 9.9291 10.331 10.0153C10.268 10.1014 10.2366 10.1992 10.2366 10.3086C10.2332 10.3997 10.2523 10.4793 10.2937 10.5472C10.3368 10.6152 10.3956 10.674 10.4702 10.7237C10.5448 10.7718 10.631 10.814 10.7287 10.8505C10.8265 10.8853 10.9309 10.9151 11.0419 10.94L11.4993 11.0494C11.7214 11.0991 11.9252 11.1654 12.1108 11.2482C12.2964 11.3311 12.4572 11.433 12.5931 11.554C12.729 11.675 12.8342 11.8175 12.9088 11.9815C12.985 12.1456 13.024 12.3337 13.0256 12.5458C13.024 12.8574 12.9444 13.1275 12.787 13.3562C12.6312 13.5832 12.4058 13.7597 12.1108 13.8857C11.8175 14.0099 11.4637 14.0721 11.0494 14.0721C10.6384 14.0721 10.2805 14.0091 9.97554 13.8832C9.67227 13.7572 9.4353 13.5708 9.2646 13.3239C9.09557 13.0753 9.00691 12.7679 8.99862 12.4016H10.0402C10.0518 12.5723 10.1007 12.7148 10.1868 12.8292C10.2747 12.9419 10.3915 13.0272 10.5373 13.0852C10.6848 13.1416 10.8514 13.1697 11.037 13.1697C11.2193 13.1697 11.3775 13.1432 11.5118 13.0902C11.6477 13.0372 11.7529 12.9634 11.8275 12.869C11.902 12.7745 11.9393 12.666 11.9393 12.5433C11.9393 12.429 11.9053 12.3329 11.8374 12.255C11.7711 12.1771 11.6733 12.1108 11.5441 12.0561C11.4165 12.0014 11.2599 11.9517 11.0743 11.907L10.5199 11.7678C10.0907 11.6634 9.75182 11.5001 9.50324 11.2781C9.25466 11.056 9.1312 10.7569 9.13286 10.3807C9.1312 10.0724 9.21323 9.80315 9.37895 9.5728C9.54633 9.34245 9.77585 9.16264 10.0675 9.03338C10.3592 8.90412 10.6906 8.83949 11.0618 8.83949C11.4397 8.83949 11.7695 8.90412 12.0512 9.03338C12.3346 9.16264 12.555 9.34245 12.7124 9.5728C12.8698 9.80315 12.951 10.07 12.956 10.3732H11.9244ZM14.6693 8.90909L15.8998 12.777H15.947L17.18 8.90909H18.3732L16.6182 14H15.2311L13.4737 8.90909H14.6693Z" fill="#F9FAFB"/>
</svg>
