<svg width="22" height="22" viewBox="0 0 22 22" fill="none" xmlns="http://www.w3.org/2000/svg">
<path fill-rule="evenodd" clip-rule="evenodd" d="M16.3507 1.83334H5.6467C5.1635 1.83333 4.74661 1.83332 4.40326 1.86137C4.04086 1.89098 3.68041 1.95635 3.33356 2.13308C2.81611 2.39673 2.39542 2.81743 2.13177 3.33487C1.95504 3.68172 1.88966 4.04217 1.86006 4.40457C1.832 4.74792 1.83202 5.16477 1.83203 5.64798V16.352C1.83202 16.8352 1.832 17.2521 1.86006 17.5955C1.88966 17.9579 1.95504 18.3183 2.13177 18.6652C2.39542 19.1826 2.81611 19.6033 3.33356 19.8669C3.68041 20.0437 4.04086 20.109 4.40326 20.1387C4.74661 20.1667 5.16347 20.1667 5.64668 20.1667H16.3507C16.8339 20.1667 17.2508 20.1667 17.5941 20.1387C17.9565 20.109 18.317 20.0437 18.6638 19.8669C19.1813 19.6033 19.602 19.1826 19.8656 18.6652C20.0424 18.3183 20.1077 17.9579 20.1373 17.5955C20.1654 17.2521 20.1654 16.8352 20.1654 16.352V5.64799C20.1654 5.16478 20.1654 4.74792 20.1373 4.40457C20.1077 4.04217 20.0424 3.68172 19.8656 3.33487C19.602 2.81743 19.1813 2.39673 18.6638 2.13308C18.317 1.95635 17.9565 1.89098 17.5941 1.86137C17.2508 1.83332 16.8339 1.83333 16.3507 1.83334Z" fill="#2970FF"/>
<path fill-rule="evenodd" clip-rule="evenodd" d="M6.30488 6.41666C5.86036 6.41666 5.5 6.82706 5.5 7.33332C5.5 7.83958 5.86036 8.24999 6.30488 8.24999H15.6951C16.1396 8.24999 16.5 7.83958 16.5 7.33332C16.5 6.82706 16.1396 6.41666 15.6951 6.41666H6.30488ZM5.5 11C5.5 10.4937 5.86036 10.0833 6.30488 10.0833H15.561C16.0055 10.0833 16.3659 10.4937 16.3659 11C16.3659 11.5063 16.0055 11.9167 15.561 11.9167H6.30488C5.86036 11.9167 5.5 11.5063 5.5 11ZM5.5 14.6667C5.5 14.1604 5.86036 13.75 6.30488 13.75H12.3415C12.786 13.75 13.1463 14.1604 13.1463 14.6667C13.1463 15.1729 12.786 15.5833 12.3415 15.5833H6.30488C5.86036 15.5833 5.5 15.1729 5.5 14.6667Z" fill="white"/>
</svg>
