<svg width="20" height="20" viewBox="0 0 20 20" fill="none" xmlns="http://www.w3.org/2000/svg">
<path fill-rule="evenodd" clip-rule="evenodd" d="M14.8668 1.66666H5.13585C4.69657 1.66664 4.31758 1.66663 4.00545 1.69213C3.67599 1.71905 3.34831 1.77848 3.03299 1.93914C2.56259 2.17883 2.18014 2.56128 1.94045 3.03168C1.77979 3.347 1.72036 3.67468 1.69345 4.00414C1.66794 4.31627 1.66796 4.69523 1.66797 5.13451V14.8654C1.66796 15.3047 1.66794 15.6837 1.69345 15.9958C1.72036 16.3253 1.77979 16.653 1.94045 16.9683C2.18014 17.4387 2.56259 17.8212 3.03299 18.0608C3.34831 18.2215 3.67599 18.2809 4.00545 18.3078C4.31759 18.3334 4.69655 18.3333 5.13583 18.3333H14.8668C15.3061 18.3333 15.685 18.3334 15.9972 18.3078C16.3266 18.2809 16.6543 18.2215 16.9696 18.0608C17.44 17.8212 17.8225 17.4387 18.0622 16.9683C18.2228 16.653 18.2822 16.3253 18.3092 15.9958C18.3347 15.6837 18.3347 15.3047 18.3346 14.8655V5.13452C18.3347 4.69524 18.3347 4.31627 18.3092 4.00414C18.2822 3.67468 18.2228 3.347 18.0622 3.03168C17.8225 2.56128 17.44 2.17883 16.9696 1.93914C16.6543 1.77848 16.3266 1.71905 15.9972 1.69213C15.685 1.66663 15.306 1.66664 14.8668 1.66666Z" fill="#344054"/>
<path fill-rule="evenodd" clip-rule="evenodd" d="M11.6003 6.73958C11.7901 6.54974 12.0979 6.54974 12.2877 6.73958L15.2044 9.65624C15.3942 9.84608 15.3942 10.1539 15.2044 10.3437L12.2877 13.2604C12.0979 13.4502 11.7901 13.4502 11.6003 13.2604C11.4104 13.0705 11.4104 12.7627 11.6003 12.5729L14.1732 9.99998L11.6003 7.42704C11.4104 7.2372 11.4104 6.92942 11.6003 6.73958Z" fill="white"/>
<path fill-rule="evenodd" clip-rule="evenodd" d="M8.39885 6.73958C8.58869 6.92942 8.58869 7.2372 8.39885 7.42704L5.82592 9.99998L8.39885 12.5729C8.58869 12.7627 8.58869 13.0705 8.39885 13.2604C8.20902 13.4502 7.90123 13.4502 7.71139 13.2604L4.79472 10.3437C4.60488 10.1539 4.60488 9.84608 4.79472 9.65624L7.71139 6.73958C7.90123 6.54974 8.20902 6.54974 8.39885 6.73958Z" fill="white"/>
</svg>
