<svg width="22" height="22" viewBox="0 0 22 22" fill="none" xmlns="http://www.w3.org/2000/svg">
<path fill-rule="evenodd" clip-rule="evenodd" d="M16.3507 1.83334H5.6467C5.1635 1.83333 4.74661 1.83332 4.40326 1.86137C4.04086 1.89098 3.68041 1.95635 3.33356 2.13308C2.81611 2.39673 2.39542 2.81743 2.13177 3.33487C1.95504 3.68172 1.88966 4.04217 1.86006 4.40457C1.832 4.74792 1.83202 5.16477 1.83203 5.64798V16.352C1.83202 16.8352 1.832 17.2521 1.86006 17.5955C1.88966 17.9579 1.95504 18.3183 2.13177 18.6652C2.39542 19.1826 2.81611 19.6033 3.33356 19.8669C3.68041 20.0437 4.04086 20.109 4.40326 20.1387C4.74661 20.1667 5.16347 20.1667 5.64668 20.1667H16.3507C16.8339 20.1667 17.2508 20.1667 17.5941 20.1387C17.9565 20.109 18.317 20.0437 18.6638 19.8669C19.1813 19.6033 19.602 19.1826 19.8656 18.6652C20.0424 18.3183 20.1077 17.9579 20.1373 17.5955C20.1654 17.2521 20.1654 16.8352 20.1654 16.352V5.64799C20.1654 5.16478 20.1654 4.74792 20.1373 4.40457C20.1077 4.04217 20.0424 3.68172 19.8656 3.33487C19.602 2.81743 19.1813 2.39673 18.6638 2.13308C18.317 1.95635 17.9565 1.89098 17.5941 1.86137C17.2508 1.83332 16.8339 1.83333 16.3507 1.83334Z" fill="#7A5AF8"/>
<path d="M13.7513 6.41666C12.7388 6.41666 11.918 7.23747 11.918 8.24999C11.918 9.26251 12.7388 10.0833 13.7513 10.0833C14.7638 10.0833 15.5847 9.26251 15.5847 8.24999C15.5847 7.23747 14.7638 6.41666 13.7513 6.41666Z" fill="white"/>
<path d="M13.6441 10.9795C13.4193 10.8863 13.1667 10.8863 12.9419 10.9795C12.7718 11.05 12.6555 11.1726 12.5717 11.2766C12.4979 11.3679 12.4191 11.4847 12.3346 11.6113L11.0542 9.7619C10.9618 9.62837 10.8756 9.50392 10.7957 9.40821C10.7118 9.3077 10.5964 9.19041 10.4299 9.12269C10.2085 9.03271 9.96079 9.03271 9.73946 9.12269C9.57287 9.19041 9.45755 9.3077 9.37361 9.40821C9.29368 9.50392 9.20754 9.62837 9.11511 9.7619L6.36814 13.7297C6.24886 13.902 6.14193 14.0565 6.06789 14.1875C5.99414 14.318 5.90874 14.4983 5.91878 14.7101C5.93157 14.98 6.06286 15.2306 6.27755 15.3948C6.44595 15.5236 6.64277 15.556 6.79207 15.5696C6.94194 15.5834 7.12978 15.5833 7.3393 15.5833L14.2097 15.5833C14.2113 15.5833 14.2129 15.5833 14.2146 15.5833L14.6926 15.5833C14.8981 15.5833 15.0829 15.5833 15.2307 15.5698C15.3785 15.5562 15.5725 15.5241 15.7396 15.3977C15.9534 15.236 16.0857 14.9888 16.1016 14.7213C16.1141 14.5121 16.0333 14.3329 15.9625 14.2023C15.8918 14.0719 15.7893 13.9181 15.6753 13.7471L14.2744 11.6458C14.1812 11.5059 14.0947 11.3761 14.0143 11.2766C13.9305 11.1726 13.8142 11.05 13.6441 10.9795Z" fill="white"/>
</svg>
