<svg width="14" height="16" viewBox="0 0 14 16" fill="none" xmlns="http://www.w3.org/2000/svg">
<path d="M0.609821 9.00008C0.689825 9.00008 0.765242 9.03539 0.821195 9.09257C0.895394 9.16841 0.974175 9.23821 1.05463 9.30196C1.44053 9.60776 1.958 9.85354 2.53881 10.0474C3.70731 10.4375 5.28208 10.6667 6.99992 10.6667C8.71776 10.6667 10.2925 10.4375 11.461 10.0474C12.0418 9.85354 12.5593 9.60776 12.9452 9.30196C13.0257 9.23821 13.1044 9.16841 13.1786 9.09257C13.2346 9.03539 13.31 9.00008 13.39 9.00008C13.5428 9.00008 13.6666 9.12391 13.6666 9.27665V12.6667C13.6666 13.233 13.3245 13.6681 12.9452 13.9686C12.5593 14.2744 12.0418 14.5202 11.461 14.7141C10.2925 15.1042 8.71776 15.3334 6.99992 15.3334C5.28208 15.3334 3.70731 15.1042 2.53881 14.7141C1.958 14.5202 1.44053 14.2744 1.05463 13.9686C0.675382 13.6681 0.333252 13.233 0.333252 12.6667V9.27665C0.333252 9.12391 0.457076 9.00008 0.609821 9.00008Z" fill="#344054"/>
<path fill-rule="evenodd" clip-rule="evenodd" d="M12.9411 2.03132C13.3207 2.33047 13.6666 2.76545 13.6666 3.33341V6.66675C13.6666 7.233 13.3245 7.66811 12.9452 7.96863C12.5593 8.27442 12.0418 8.52021 11.461 8.71411C10.2925 9.10421 8.71776 9.33342 6.99992 9.33342C5.28208 9.33342 3.70731 9.10421 2.53881 8.71411C1.958 8.52021 1.44053 8.27442 1.05463 7.96863C0.675382 7.66811 0.333252 7.233 0.333252 6.66675V3.33341C0.333252 2.76545 0.679181 2.33047 1.05878 2.03132C1.44589 1.72624 1.96474 1.48065 2.54646 1.28675C3.71686 0.896612 5.29135 0.666748 6.99992 0.666748C8.70849 0.666748 10.283 0.896612 11.4534 1.28675C12.0351 1.48065 12.5539 1.72624 12.9411 2.03132ZM1.66659 3.33337C1.66659 3.33337 1.66657 3.32994 1.66862 3.32322C1.67089 3.31579 1.67647 3.30111 1.68997 3.27913C1.71827 3.23303 1.77597 3.16373 1.88408 3.07853C2.1042 2.90506 2.46403 2.71968 2.9681 2.55166C3.96927 2.21793 5.39478 2.00008 6.99992 2.00008C8.60506 2.00008 10.0306 2.21793 11.0317 2.55166C11.5358 2.71968 11.8956 2.90506 12.1158 3.07853C12.2239 3.16373 12.2816 3.23303 12.3099 3.27913C12.3234 3.30111 12.329 3.31579 12.3312 3.32322C12.3333 3.32994 12.3333 3.33356 12.3333 3.33356C12.3333 3.33356 12.3332 3.33722 12.3312 3.34361C12.329 3.35104 12.3234 3.36572 12.3099 3.3877C12.2816 3.4338 12.2239 3.5031 12.1158 3.5883C11.8956 3.76177 11.5358 3.94715 11.0317 4.11517C10.0306 4.4489 8.60506 4.66675 6.99992 4.66675C5.39478 4.66675 3.96927 4.4489 2.9681 4.11517C2.46403 3.94715 2.1042 3.76177 1.88408 3.5883C1.77597 3.5031 1.71827 3.4338 1.68997 3.3877C1.67647 3.36572 1.67089 3.35104 1.66862 3.34361C1.6667 3.33731 1.66659 3.33337 1.66659 3.33337Z" fill="#344054"/>
</svg>
