<svg width="22" height="22" viewBox="0 0 22 22" fill="none" xmlns="http://www.w3.org/2000/svg">
<path fill-rule="evenodd" clip-rule="evenodd" d="M16.3507 1.83334H5.6467C5.1635 1.83333 4.74661 1.83332 4.40326 1.86137C4.04086 1.89098 3.68041 1.95635 3.33356 2.13308C2.81611 2.39673 2.39542 2.81743 2.13177 3.33487C1.95504 3.68172 1.88966 4.04217 1.86006 4.40457C1.832 4.74792 1.83202 5.16477 1.83203 5.64798V16.352C1.83202 16.8352 1.832 17.2521 1.86006 17.5955C1.88966 17.9579 1.95504 18.3183 2.13177 18.6652C2.39542 19.1826 2.81611 19.6033 3.33356 19.8669C3.68041 20.0437 4.04086 20.109 4.40326 20.1387C4.74661 20.1667 5.16347 20.1667 5.64668 20.1667H16.3507C16.8339 20.1667 17.2508 20.1667 17.5941 20.1387C17.9565 20.109 18.317 20.0437 18.6638 19.8669C19.1813 19.6033 19.602 19.1826 19.8656 18.6652C20.0424 18.3183 20.1077 17.9579 20.1373 17.5955C20.1654 17.2521 20.1654 16.8352 20.1654 16.352V5.64799C20.1654 5.16478 20.1654 4.74792 20.1373 4.40457C20.1077 4.04217 20.0424 3.68172 19.8656 3.33487C19.602 2.81743 19.1813 2.39673 18.6638 2.13308C18.317 1.95635 17.9565 1.89098 17.5941 1.86137C17.2508 1.83332 16.8339 1.83333 16.3507 1.83334Z" fill="#F04438"/>
<path fill-rule="evenodd" clip-rule="evenodd" d="M5.04297 7.79166H7.13167C7.57233 7.79166 7.90576 7.86453 8.13196 8.01028C8.35816 8.15602 8.51092 8.36904 8.59024 8.64932C8.66956 8.9296 8.70922 9.31078 8.70922 9.79287C8.70922 10.2469 8.6725 10.6141 8.59906 10.8944C8.52561 11.1747 8.37579 11.3947 8.14959 11.5544C7.92338 11.7142 7.58408 11.7941 7.13167 11.7941H6.45307V14.2083H5.04297V7.79166ZM6.77034 10.6505C6.94072 10.6505 7.05823 10.6337 7.12286 10.6001C7.18749 10.5665 7.23156 10.4936 7.25506 10.3815C7.27856 10.2694 7.29031 10.0732 7.29031 9.79287C7.29031 9.51259 7.28003 9.31639 7.25946 9.20428C7.2389 9.09216 7.19483 9.01929 7.12727 8.98566C7.0597 8.95203 6.94366 8.93521 6.77915 8.93521H6.45307V10.6505H6.77034ZM9.47664 7.79166H11.1864C11.8268 7.79166 12.2836 7.87714 12.5568 8.04811C12.83 8.21909 12.9989 8.48675 13.0636 8.85112C13.1282 9.21549 13.1605 9.8265 13.1605 10.6842C13.1605 11.5362 13.1282 12.7775 13.0636 13.1447C12.9989 13.5118 12.83 13.7809 12.5568 13.9519C12.2836 14.1228 11.8268 14.2083 11.1864 14.2083H9.47664V7.79166ZM11.1776 13.0564C11.3891 13.0564 11.5286 13.0297 11.5962 12.9765C11.6638 12.9232 11.7284 12.4853 11.7284 11.9454C11.7284 11.4055 11.7592 11.312 11.7592 10.6842C11.7592 10.0619 11.7489 9.64292 11.7284 9.4271C11.7078 9.21129 11.6623 9.07675 11.5918 9.0235C11.5213 8.97024 11.3832 8.94362 11.1776 8.94362H10.8779V13.0564H11.1776ZM14.0689 14.2083V7.79166H16.9596V8.94362H15.479V10.2217H16.7746V11.3737H15.479V14.2083H14.0689Z" fill="white"/>
</svg>
