<svg width="22" height="22" viewBox="0 0 22 22" fill="none" xmlns="http://www.w3.org/2000/svg">
<path fill-rule="evenodd" clip-rule="evenodd" d="M16.3507 1.83334H5.6467C5.1635 1.83333 4.74661 1.83332 4.40326 1.86137C4.04086 1.89098 3.68041 1.95635 3.33356 2.13308C2.81611 2.39673 2.39542 2.81743 2.13177 3.33487C1.95504 3.68172 1.88966 4.04217 1.86006 4.40457C1.832 4.74792 1.83202 5.16477 1.83203 5.64798V16.352C1.83202 16.8352 1.832 17.2521 1.86006 17.5955C1.88966 17.9579 1.95504 18.3183 2.13177 18.6652C2.39542 19.1826 2.81611 19.6033 3.33356 19.8669C3.68041 20.0437 4.04086 20.109 4.40326 20.1387C4.74661 20.1667 5.16347 20.1667 5.64668 20.1667H16.3507C16.8339 20.1667 17.2508 20.1667 17.5941 20.1387C17.9565 20.109 18.317 20.0437 18.6638 19.8669C19.1813 19.6033 19.602 19.1826 19.8656 18.6652C20.0424 18.3183 20.1077 17.9579 20.1373 17.5955C20.1654 17.2521 20.1654 16.8352 20.1654 16.352V5.64799C20.1654 5.16478 20.1654 4.74792 20.1373 4.40457C20.1077 4.04217 20.0424 3.68172 19.8656 3.33487C19.602 2.81743 19.1813 2.39673 18.6638 2.13308C18.317 1.95635 17.9565 1.89098 17.5941 1.86137C17.2508 1.83332 16.8339 1.83333 16.3507 1.83334Z" fill="#EF6820"/>
<path d="M10.5519 5.5C11.3897 5.5 12.0962 5.58229 12.6729 5.74897C13.291 5.92762 13.7836 6.31661 14.1412 6.90519C14.4904 7.48015 14.6654 8.12447 14.6654 8.83191C14.6654 9.96528 14.3137 10.8462 13.6077 11.4499C12.9522 12.0103 12.0368 12.3011 10.8691 12.3317L10.6604 12.3344L9.21162 12.3339L9.2117 16.5H7.33203V5.5H10.5519ZM10.6468 7.31583L9.21162 7.31558V10.5183L10.6739 10.5186C11.4563 10.5186 11.9944 10.3704 12.2926 10.0952C12.5882 9.8224 12.7382 9.42271 12.7382 8.87456C12.7382 8.51115 12.6532 8.19532 12.4836 7.92055C12.3209 7.65684 12.1256 7.49901 11.8917 7.4336C11.6427 7.364 11.2801 7.32428 10.8082 7.31704L10.6468 7.31583Z" fill="white"/>
</svg>
