<svg width="18" height="18" viewBox="0 0 18 18" fill="none" xmlns="http://www.w3.org/2000/svg">
<path d="M16.125 0.601562H1.875C0.839466 0.601562 0 1.27314 0 2.10156V16.5016C0 17.33 0.839466 18.0016 1.875 18.0016H16.125C17.1605 18.0016 18 17.33 18 16.5016V2.10156C18 1.27314 17.1605 0.601562 16.125 0.601562Z" fill="#D5E3FA"/>
<path d="M16.125 0H1.875C0.839466 0 0 0.671573 0 1.5V15.9C0 16.7284 0.839466 17.4 1.875 17.4H16.125C17.1605 17.4 18 16.7284 18 15.9V1.5C18 0.671573 17.1605 0 16.125 0Z" fill="#EAF1FC"/>
<path d="M6.91069 6.79652V5.90909H11.0918V6.79652H9.5332V11H8.46928V6.79652H6.91069Z" fill="#1A4689"/>
</svg>
