<svg width="18" height="18" viewBox="0 0 18 18" fill="none" xmlns="http://www.w3.org/2000/svg">
<path d="M16.125 0.601562H1.875C0.839466 0.601562 0 1.27314 0 2.10156V16.5016C0 17.33 0.839466 18.0016 1.875 18.0016H16.125C17.1605 18.0016 18 17.33 18 16.5016V2.10156C18 1.27314 17.1605 0.601562 16.125 0.601562Z" fill="#D4BEF7"/>
<path d="M16.125 0H1.875C0.839466 0 0 0.671573 0 1.5V15.9C0 16.7284 0.839466 17.4 1.875 17.4H16.125C17.1605 17.4 18 16.7284 18 15.9V1.5C18 0.671573 17.1605 0 16.125 0Z" fill="#F1E9FB"/>
<path fill-rule="evenodd" clip-rule="evenodd" d="M8.5 4C8.55923 4 8.61819 4.00114 8.67687 4.00341C8.69533 4.00409 8.71386 4.00492 8.73236 4.00586C8.77405 4.00802 8.81552 4.0107 8.85682 4.01394C8.88573 4.01614 8.91423 4.01865 8.94264 4.02143C8.98133 4.02527 9.0202 4.02957 9.05892 4.03437C9.08277 4.03728 9.1066 4.04044 9.13037 4.04378C9.24421 4.05976 9.35663 4.07997 9.46752 4.10427C9.47349 4.1059 9.47981 4.10731 9.48613 4.10873C11.355 4.52638 12.7849 6.10635 12.9778 8.05017C12.9781 8.05683 12.9787 8.06367 12.9793 8.0705C12.9932 8.21201 13 8.35521 13 8.5C13 10.8521 11.1954 12.7828 8.89513 12.9829L8.76428 12.9924C8.67683 12.9974 8.58871 13 8.5 13C6.01472 13 4 10.9853 4 8.5C4 6.01472 6.01472 4 8.5 4ZM4.9945 7.6945C4.936 7.9555 4.9 8.221 4.9 8.5C4.9 8.61462 4.90535 8.72798 4.91581 8.83984C4.92574 8.9457 4.94024 9.05025 4.95913 9.15328C4.96329 9.17627 4.96768 9.19899 4.97229 9.22164L4.95913 9.15328C4.98235 9.27994 5.01219 9.40428 5.0483 9.52593C5.05148 9.53698 5.05485 9.54814 5.05827 9.55927L5.0483 9.52593C5.0585 9.56031 5.0692 9.59448 5.0804 9.62842L5.05827 9.55927C5.07 9.5974 5.08234 9.63527 5.09528 9.67285L5.0804 9.62842C5.0924 9.66481 5.10497 9.70095 5.11809 9.73682L5.09528 9.67285C5.10776 9.7091 5.12081 9.74508 5.13441 9.78079L5.11809 9.73682C5.12884 9.76621 5.13996 9.79543 5.15146 9.82445L5.13441 9.78079C5.14901 9.81913 5.16425 9.85715 5.18011 9.89485L5.15146 9.82445C5.18241 9.90266 5.21603 9.97952 5.2522 10.0549C5.27722 10.1072 5.30353 10.1588 5.33102 10.2096C5.33861 10.2236 5.3464 10.2378 5.35429 10.2519L5.33102 10.2096C5.34749 10.24 5.36438 10.2702 5.38169 10.3001L5.35429 10.2519C5.37329 10.286 5.39283 10.3197 5.4129 10.353L5.38169 10.3001C5.40225 10.3356 5.42339 10.3707 5.44511 10.4054L5.4129 10.353C5.43166 10.3842 5.45088 10.4151 5.47055 10.4457L5.44511 10.4054C5.46484 10.437 5.48505 10.4682 5.50573 10.499L5.47055 10.4457C5.48947 10.4751 5.5088 10.5042 5.52854 10.533L5.50573 10.499C5.53048 10.536 5.55589 10.5725 5.58196 10.6084L5.52854 10.533C5.5524 10.5678 5.57685 10.6021 5.60188 10.636L5.58196 10.6084C5.60412 10.639 5.62676 10.6692 5.64985 10.6991L5.60188 10.636C5.61903 10.6592 5.63644 10.6823 5.65413 10.7051L5.64985 10.6991C6.22147 11.4378 7.07478 11.9475 8.05 12.0685V11.2C7.555 11.2 7.15 10.795 7.15 10.3V9.85L4.9945 7.6945ZM9.85045 5.16187L9.85 5.35C9.85 5.845 9.445 6.25 8.95 6.25H8.05V7.15C8.05 7.3975 7.8475 7.6 7.6 7.6H6.7V8.5H9.4C9.6475 8.5 9.85 8.7025 9.85 8.95V10.3H10.3C10.705 10.3 11.038 10.561 11.155 10.9255C11.6404 10.3953 11.9709 9.71938 12.0694 8.96986C12.0711 8.95879 12.0724 8.94782 12.0738 8.93683L12.0694 8.96986C12.0817 8.87579 12.0904 8.78056 12.0953 8.68432C12.0962 8.6668 12.097 8.64907 12.0976 8.63131L12.1 8.5C12.1 8.347 12.082 8.1985 12.064 8.05L12.0722 8.05019C11.9084 6.73624 11.0365 5.64216 9.85045 5.16187Z" fill="#7027E5"/>
</svg>
